<svg width="173" height="53" viewBox="0 0 173 53" fill="none" xmlns="http://www.w3.org/2000/svg">
<g clip-path="url(#clip0_130_5)">
<path fill-rule="evenodd" clip-rule="evenodd" d="M0 10.9688L24.4871 10.7878L24.5097 15.3791L4.79342 15.4017V23.1141L24.5776 36.2545L4.79342 49.4854H0V10.9688ZM4.88385 43.9669L16.2795 36.3902L4.88385 28.7005V43.9669Z" fill="#E8E8E8" stroke="#E8E8E8" stroke-width="0.542651"/>
<path fill-rule="evenodd" clip-rule="evenodd" d="M31.3164 10.8328H36.1098L55.6226 24.0863L36.1777 37.3851L36.1098 49.5982H31.3164V10.8328ZM35.9742 31.6403L47.2342 24.1089L35.9742 16.6453V31.6403Z" fill="#E8E8E8" stroke="#E8E8E8" stroke-width="0.542651"/>
<path d="M58.8538 22.9331L74.5455 33.5857L90.1015 23.0914L90.2145 28.6326L78.4571 36.2545L58.8086 49.3497L58.9443 43.9669L70.2043 36.2545L58.8538 28.6326V22.9331Z" fill="#E8E8E8" stroke="#E8E8E8" stroke-width="0.542651"/>
<path d="M105.252 23.0686L85.6484 36.2769L105.433 49.3721L105.161 43.7631L93.9917 36.209L105.252 28.655V23.0686Z" fill="#E8E8E8" stroke="#E8E8E8" stroke-width="0.542651"/>
<path d="M110.316 23.3399H114.838V33.0878L130.168 22.978L130.078 28.6323L118.705 36.4577L130.259 43.7404L130.281 49.5303L115.019 39.6467L114.838 49.5982H110.316V23.3399Z" fill="#E8E8E8" stroke="#E8E8E8" stroke-width="0.542651"/>
<path fill-rule="evenodd" clip-rule="evenodd" d="M166.999 36.2772L147.305 49.5986L127.34 36.2772L147.463 23.1594L166.999 36.2772ZM147.327 28.7232L135.864 36.1868L147.486 43.9896L158.768 36.2772L147.327 28.7232Z" fill="#E8E8E8" stroke="#E8E8E8" stroke-width="0.542651"/>
<path d="M168.316 15.2408L168.747 9.59763M168.747 9.59763L169.178 3.95441L162.147 6.82284L168.747 9.59763ZM168.747 9.59763L163.844 14.3315M157.11 3.41063L156.16 13.3659M158.704 7.31652L146.174 7.87263M150.383 4.78857L148.883 14.5126M136.815 13.9689L137.645 9.30212M137.645 9.30212L138.475 4.63538L143.727 5.22598L137.645 9.30212ZM128.304 6.507L128.587 8.66962M134.13 10.7363L129.379 14.725L129.124 12.7786M128.587 8.66962L121.592 10.1566L129.124 12.7786M128.587 8.66962L129.124 12.7786M110.979 10.3862L116.586 11.2877L109.484 15.0967L110.979 10.3862ZM110.979 10.3862L104.072 14.1155M110.979 10.3862L112.474 5.67571L119.217 6.56942L110.979 10.3862ZM102.956 11.3813C101.257 12.8313 100.264 13.4332 98.269 13.2936C95.6061 13.4689 94.0863 11.0819 95.8787 7.4348C97.671 3.78765 99.9521 3.64673 100.869 4.03217C102.282 4.51859 103.714 8.05556 100.927 12.8376M84.5665 14.3281L86.3696 3.11354L91.9409 4.48533L85.1571 9.07547M77.2985 5.44763L77.4418 6.75599M82.8136 10.0316L78.3015 14.6061L78.1104 12.8617M77.4418 6.75599L70.9053 9.87841L78.1104 12.8617M77.4418 6.75599L78.1104 12.8617M59.8818 4.2742L60.0919 12.4363L63.8659 12.3504M68.5637 4.77493L67.6399 12.2644L63.8659 12.3504M63.6262 4.73619L63.8659 12.3504" stroke="#E8E8E8" stroke-width="1.13052"/>
</g>
<defs>
<clipPath id="clip0_130_5">
<rect width="173" height="53" fill="white"/>
</clipPath>
</defs>
</svg>
