<svg width="182" height="52" viewBox="0 0 182 52" fill="none" xmlns="http://www.w3.org/2000/svg">
<path fill-rule="evenodd" clip-rule="evenodd" d="M1 10.1724L26.8802 9.9812L26.9042 14.8337L6.06613 14.8576V23.0087L26.9758 36.8968L6.06613 50.8804H1V10.1724ZM6.16171 45.0479L18.2057 37.0402L6.16171 28.9129V45.0479Z" fill="#E8E8E8" stroke="#E8E8E8" stroke-width="0.636208"/>
<path fill-rule="evenodd" clip-rule="evenodd" d="M34.0938 10.0278H39.1599L59.7828 24.0354L39.2316 38.0908L39.1599 50.9987H34.0938V10.0278ZM39.0165 32.0192L50.9171 24.0593L39.0165 16.1711V32.0192Z" fill="#E8E8E8" stroke="#E8E8E8" stroke-width="0.636208"/>
<path d="M63.2002 22.8174L79.7845 34.076L96.2255 22.9847L96.345 28.8411L83.9187 36.8967L63.1523 50.7369L63.2957 45.0478L75.1963 36.8967L63.2002 28.8411V22.8174Z" fill="#E8E8E8" stroke="#E8E8E8" stroke-width="0.636208"/>
<path d="M112.238 22.9597L91.5195 36.9195L112.429 50.7597L112.142 44.8316L100.337 36.8477L112.238 28.8639V22.9597Z" fill="#E8E8E8" stroke="#E8E8E8" stroke-width="0.636208"/>
<path d="M117.59 23.2474H122.369V33.5499L138.571 22.865L138.476 28.8409L126.456 37.1116L138.667 44.8086L138.691 50.9279L122.56 40.482L122.369 50.9996H117.59V23.2474Z" fill="#E8E8E8" stroke="#E8E8E8" stroke-width="0.636208"/>
<path fill-rule="evenodd" clip-rule="evenodd" d="M177.497 36.9208L156.683 51L135.582 36.9208L156.85 23.0566L177.497 36.9208ZM156.707 28.9369L144.591 36.8252L156.874 45.0719L168.799 36.9208L156.707 28.9369Z" fill="#E8E8E8" stroke="#E8E8E8" stroke-width="0.636208"/>
<path d="M179.529 13.8173L179.985 7.85299M179.985 7.85299L180.44 1.88871L173.01 4.92033L179.985 7.85299ZM179.985 7.85299L174.803 12.8562M167.686 1.31399L166.682 11.8357M169.37 5.44209L156.127 6.02984M160.576 2.77034L158.991 13.0476M146.236 12.4729L147.113 7.54065M147.113 7.54065L147.99 2.60841L153.541 3.23262L147.113 7.54065ZM137.24 4.58652L137.539 6.87219M137.539 6.87219L130.147 8.44377L138.108 11.215M137.539 6.87219L138.108 11.215M143.398 9.05647L138.376 13.272L138.108 11.215M118.93 8.68641L124.856 9.63921L117.349 13.6649L118.93 8.68641ZM118.93 8.68641L111.63 12.6279M118.93 8.68641L120.51 3.70793L127.637 4.65249L118.93 8.68641ZM110.451 9.73819C108.655 11.2707 107.606 11.9068 105.497 11.7593C102.682 11.9445 101.076 9.42174 102.971 5.56711C104.865 1.71246 107.276 1.56353 108.244 1.97089C109.738 2.48499 111.252 6.22317 108.306 11.2773M91.0148 12.8526L92.9204 1L98.8088 2.44984L91.6392 7.30113M83.3334 3.46689L83.4848 4.84968M83.4848 4.84968L76.5765 8.14975L84.1915 11.3027M83.4848 4.84968L84.1915 11.3027M89.1623 8.31166L84.3934 13.1465L84.1915 11.3027M64.9258 2.2267L65.1478 10.8532L69.1365 10.7623M69.1365 10.7623L73.1253 10.6715L74.1016 2.75591M69.1365 10.7623L68.8832 2.71498" stroke="#E8E8E8" stroke-width="1.32543"/>
</svg>
