<svg width="50" height="50" viewBox="0 0 50 50" fill="none" xmlns="http://www.w3.org/2000/svg">
<path d="M34.9961 30.7955C34.9961 30.696 34.9961 30.5966 34.9535 30.4972C34.854 30.1989 34.158 29.8864 33.8739 29.7443C33.0643 29.2898 32.2404 28.8494 31.445 28.3807C31.0756 28.1534 30.6211 27.7273 30.1808 27.7273C29.3143 27.7273 28.0501 30.2983 27.283 30.2983C26.8995 30.2983 26.4023 29.9432 26.0614 29.7443C23.4762 28.3097 21.6864 26.5199 20.2518 23.9347C20.0529 23.5938 19.6978 23.0966 19.6978 22.7131C19.6978 21.946 22.2688 20.6818 22.2688 19.8153C22.2688 19.375 21.8427 18.9205 21.6154 18.5511C21.1467 17.7557 20.7063 16.9318 20.2518 16.1222C20.1097 15.8381 19.7972 15.142 19.4989 15.0426C19.3995 15 19.3001 15 19.2006 15C18.6893 15 17.695 15.2273 17.2262 15.4403C16.5302 15.7386 16.0756 16.5341 15.7205 17.1733C15.266 18.0114 14.9961 18.8636 14.9961 19.8153C14.9961 21.1364 15.5359 22.3295 15.9762 23.5369C16.2887 24.4034 16.6722 25.2415 17.1552 26.0227C18.6467 28.4375 21.5586 31.3494 23.9734 32.8409C24.7546 33.3239 25.5927 33.7074 26.4592 34.0199C27.6665 34.4602 28.8597 35 30.1808 35C31.1325 35 31.9847 34.7301 32.8228 34.2756C33.462 33.9205 34.2575 33.4659 34.5558 32.7699C34.7688 32.3011 34.9961 31.3068 34.9961 30.7955Z" fill="#0C0C0C"/>
<rect x="1" y="1" width="47.9959" height="48" rx="23.9979" stroke="#0C0C0C" stroke-width="2"/>
</svg>
