<svg width="22" height="20" viewBox="0 0 22 20" fill="none" xmlns="http://www.w3.org/2000/svg">
<path d="M7.19917 6.40538C5.94718 7.39321 5.48838 9.19477 6.56943 10.64C7.58107 11.9925 8.85538 13.1756 10.3115 14.1145C11.8681 15.1182 13.8081 14.692 14.8718 13.5294L14.8837 13.5345C16.2423 14.1189 17.6855 14.5195 19.1667 14.7236V17.5833L19.1654 17.5833L19.1621 17.5833C9.85843 17.5956 2.82339 10.987 2.83335 2.42055V2.41667H5.9126L5.9128 2.41793C6.13266 3.7932 6.56387 5.13208 7.19332 6.39367L7.19917 6.40538ZM19.1654 19.75H20.3333C20.9777 19.75 21.5 19.265 21.5 18.6666V13.7892C21.5 13.2523 21.0765 12.7964 20.5046 12.7176L19.5081 12.5803C18.2477 12.4066 17.0206 12.0658 15.8644 11.5685L14.9861 11.1907C14.4771 10.9718 13.8724 11.1202 13.5463 11.544L13.1487 12.061C12.8002 12.514 12.1349 12.6524 11.6424 12.3348C10.4147 11.5432 9.33875 10.5443 8.48586 9.40405C8.14378 8.94672 8.29281 8.32882 8.78081 8.00522L9.33723 7.63624C9.79377 7.3335 9.95363 6.77189 9.71779 6.29923L9.31048 5.48286C8.77486 4.40935 8.40793 3.27006 8.22084 2.09978L8.07288 1.17426C7.98798 0.643206 7.49702 0.25 6.91886 0.25H1.66668C1.02235 0.25 0.500012 0.735025 0.500012 1.33333V2.41822C0.488672 12.1752 8.56194 19.764 19.1654 19.75Z" fill="#B28F4F"/>
</svg>
