<svg width="238" height="719" viewBox="0 0 238 719" fill="none" xmlns="http://www.w3.org/2000/svg">
<g opacity="0.1">
<path d="M228.966 438.044C224.218 438.044 220.369 434.194 220.369 429.445C220.369 424.696 224.218 420.846 228.966 420.846C233.714 420.846 237.562 424.696 237.562 429.445C237.562 434.194 233.714 438.044 228.966 438.044Z" fill="white" fill-opacity="0.5"/>
<path d="M228.966 508.188C224.218 508.188 220.369 504.338 220.369 499.589C220.369 494.84 224.218 490.99 228.966 490.99C233.714 490.99 237.562 494.84 237.562 499.589C237.562 504.338 233.714 508.188 228.966 508.188Z" fill="white" fill-opacity="0.5"/>
<path d="M228.966 578.324C224.218 578.324 220.369 574.474 220.369 569.725C220.369 564.976 224.218 561.126 228.966 561.126C233.714 561.126 237.562 564.976 237.562 569.725C237.562 574.474 233.714 578.324 228.966 578.324Z" fill="white" fill-opacity="0.5"/>
<path d="M220.369 639.868C220.369 644.615 224.22 648.467 228.966 648.467C233.712 648.467 237.562 644.615 237.562 639.868C237.562 635.12 233.712 631.269 228.966 631.269C224.212 631.269 220.369 635.12 220.369 639.868Z" fill="white" fill-opacity="0.5"/>
<path d="M220.369 710.011C220.369 714.759 224.22 718.61 228.966 718.61C233.712 718.61 237.562 714.759 237.562 710.011C237.562 705.264 233.712 701.412 228.966 701.412C224.212 701.412 220.369 705.264 220.369 710.011Z" fill="white" fill-opacity="0.5"/>
<path d="M173.872 17.198C169.124 17.198 165.276 13.3481 165.276 8.599C165.276 3.8499 169.124 0 173.872 0C178.62 0 182.469 3.8499 182.469 8.599C182.469 13.3481 178.62 17.198 173.872 17.198Z" fill="white" fill-opacity="0.5"/>
<path d="M173.872 87.3338C169.124 87.3338 165.276 83.4839 165.276 78.7348C165.276 73.9857 169.124 70.1358 173.872 70.1358C178.62 70.1358 182.469 73.9857 182.469 78.7348C182.469 83.4839 178.62 87.3338 173.872 87.3338Z" fill="white" fill-opacity="0.5"/>
<path d="M173.872 157.478C169.124 157.478 165.276 153.628 165.276 148.879C165.276 144.13 169.124 140.28 173.872 140.28C178.62 140.28 182.469 144.13 182.469 148.879C182.469 153.628 178.62 157.478 173.872 157.478Z" fill="white" fill-opacity="0.5"/>
<path d="M173.872 227.62C169.124 227.62 165.276 223.771 165.276 219.021C165.276 214.272 169.124 210.422 173.872 210.422C178.62 210.422 182.469 214.272 182.469 219.021C182.469 223.771 178.62 227.62 173.872 227.62Z" fill="white" fill-opacity="0.5"/>
<path d="M165.276 289.157C165.276 293.905 169.126 297.756 173.872 297.756C178.618 297.756 182.469 293.905 182.469 289.157C182.469 284.41 178.618 280.558 173.872 280.558C169.126 280.558 165.276 284.41 165.276 289.157Z" fill="white" fill-opacity="0.5"/>
<path d="M165.276 359.301C165.276 364.049 169.126 367.9 173.872 367.9C178.618 367.9 182.469 364.049 182.469 359.301C182.469 354.554 178.618 350.702 173.872 350.702C169.126 350.702 165.276 354.554 165.276 359.301Z" fill="white" fill-opacity="0.5"/>
<path d="M173.872 438.044C169.124 438.044 165.276 434.194 165.276 429.445C165.276 424.696 169.124 420.846 173.872 420.846C178.62 420.846 182.469 424.696 182.469 429.445C182.469 434.194 178.62 438.044 173.872 438.044Z" fill="white" fill-opacity="0.5"/>
<path d="M173.872 508.188C169.124 508.188 165.276 504.338 165.276 499.589C165.276 494.84 169.124 490.99 173.872 490.99C178.62 490.99 182.469 494.84 182.469 499.589C182.469 504.338 178.62 508.188 173.872 508.188Z" fill="white" fill-opacity="0.5"/>
<path d="M173.872 578.324C169.124 578.324 165.276 574.474 165.276 569.725C165.276 564.976 169.124 561.126 173.872 561.126C178.62 561.126 182.469 564.976 182.469 569.725C182.469 574.474 178.62 578.324 173.872 578.324Z" fill="white" fill-opacity="0.5"/>
<path d="M165.276 639.867C165.276 644.615 169.126 648.466 173.872 648.466C178.618 648.466 182.469 644.615 182.469 639.867C182.469 635.12 178.618 631.268 173.872 631.268C169.126 631.268 165.276 635.12 165.276 639.867Z" fill="white" fill-opacity="0.5"/>
<path d="M165.276 710.011C165.276 714.759 169.126 718.61 173.872 718.61C178.618 718.61 182.469 714.759 182.469 710.011C182.469 705.264 178.618 701.412 173.872 701.412C169.126 701.412 165.276 705.264 165.276 710.011Z" fill="white" fill-opacity="0.5"/>
<path d="M110.186 8.599C110.186 13.3464 114.036 17.198 118.782 17.198C123.528 17.198 127.379 13.3464 127.379 8.599C127.379 3.85163 123.528 0 118.782 0C114.036 0 110.186 3.84349 110.186 8.599Z" fill="white" fill-opacity="0.5"/>
<path d="M110.186 78.7348C110.186 83.4822 114.036 87.3338 118.782 87.3338C123.528 87.3338 127.379 83.4822 127.379 78.7348C127.379 73.9874 123.528 70.1358 118.782 70.1358C114.036 70.1358 110.186 73.9874 110.186 78.7348Z" fill="white" fill-opacity="0.5"/>
<path d="M110.186 148.879C110.186 153.626 114.036 157.478 118.782 157.478C123.528 157.478 127.379 153.626 127.379 148.879C127.379 144.131 123.528 140.28 118.782 140.28C114.036 140.28 110.186 144.131 110.186 148.879Z" fill="white" fill-opacity="0.5"/>
<path d="M110.186 219.021C110.186 223.769 114.036 227.62 118.782 227.62C123.528 227.62 127.379 223.769 127.379 219.021C127.379 214.274 123.528 210.422 118.782 210.422C114.036 210.422 110.186 214.274 110.186 219.021Z" fill="white" fill-opacity="0.5"/>
<path d="M110.186 289.157C110.186 293.905 114.036 297.756 118.782 297.756C123.528 297.756 127.379 293.905 127.379 289.157C127.379 284.41 123.528 280.558 118.782 280.558C114.036 280.558 110.186 284.41 110.186 289.157Z" fill="white" fill-opacity="0.5"/>
<path d="M110.186 359.301C110.186 364.049 114.036 367.9 118.782 367.9C123.528 367.9 127.379 364.049 127.379 359.301C127.379 354.554 123.528 350.702 118.782 350.702C114.036 350.702 110.186 354.554 110.186 359.301Z" fill="white" fill-opacity="0.5"/>
<path d="M110.186 429.445C110.186 434.192 114.036 438.044 118.782 438.044C123.528 438.044 127.379 434.192 127.379 429.445C127.379 424.698 123.528 420.846 118.782 420.846C114.036 420.846 110.186 424.698 110.186 429.445Z" fill="white" fill-opacity="0.5"/>
<path d="M55.0921 148.879C55.0921 153.626 58.9426 157.478 63.6886 157.478C68.4346 157.478 72.2852 153.626 72.2852 148.879C72.2852 144.131 68.4346 140.28 63.6886 140.28C58.9426 140.28 55.0921 144.131 55.0921 148.879Z" fill="white" fill-opacity="0.5"/>
<path d="M55.0921 219.022C55.0921 223.77 58.9426 227.621 63.6886 227.621C68.4346 227.621 72.2852 223.77 72.2852 219.022C72.2852 214.275 68.4346 210.423 63.6886 210.423C58.9426 210.423 55.0921 214.275 55.0921 219.022Z" fill="white" fill-opacity="0.5"/>
<path d="M55.0921 289.158C55.0921 293.906 58.9426 297.757 63.6886 297.757C68.4346 297.757 72.2852 293.906 72.2852 289.158C72.2852 284.411 68.4346 280.559 63.6886 280.559C58.9426 280.559 55.0921 284.411 55.0921 289.158Z" fill="white" fill-opacity="0.5"/>
<path d="M55.0921 359.302C55.0921 364.05 58.9426 367.901 63.6886 367.901C68.4346 367.901 72.2852 364.05 72.2852 359.302C72.2852 354.555 68.4346 350.703 63.6886 350.703C58.9426 350.703 55.0921 354.555 55.0921 359.302Z" fill="white" fill-opacity="0.5"/>
<path d="M55.0921 429.445C55.0921 434.192 58.9426 438.044 63.6886 438.044C68.4346 438.044 72.2852 434.192 72.2852 429.445C72.2852 424.698 68.4346 420.846 63.6886 420.846C58.9426 420.846 55.0921 424.698 55.0921 429.445Z" fill="white" fill-opacity="0.5"/>
<path d="M8.59488 157.478C3.84715 157.478 -0.00164795 153.628 -0.00164795 148.879C-0.00164795 144.13 3.84715 140.28 8.59488 140.28C13.3426 140.28 17.1914 144.13 17.1914 148.879C17.1914 153.628 13.3426 157.478 8.59488 157.478Z" fill="white" fill-opacity="0.5"/>
<path d="M8.59488 227.621C3.84715 227.621 -0.00164795 223.772 -0.00164795 219.022C-0.00164795 214.273 3.84715 210.423 8.59488 210.423C13.3426 210.423 17.1914 214.273 17.1914 219.022C17.1914 223.772 13.3426 227.621 8.59488 227.621Z" fill="white" fill-opacity="0.5"/>
<path d="M-0.00164795 289.158C-0.00164795 293.906 3.84888 297.757 8.59488 297.757C13.3409 297.757 17.1914 293.906 17.1914 289.158C17.1914 284.411 13.3409 280.559 8.59488 280.559C3.84888 280.559 -0.00164795 284.411 -0.00164795 289.158Z" fill="white" fill-opacity="0.5"/>
<path d="M-0.00164795 359.302C-0.00164795 364.05 3.84888 367.901 8.59488 367.901C13.3409 367.901 17.1914 364.05 17.1914 359.302C17.1914 354.555 13.3409 350.703 8.59488 350.703C3.84888 350.703 -0.00164795 354.555 -0.00164795 359.302Z" fill="white" fill-opacity="0.5"/>
<path d="M8.59488 438.044C3.84715 438.044 -0.00164795 434.194 -0.00164795 429.445C-0.00164795 424.696 3.84715 420.846 8.59488 420.846C13.3426 420.846 17.1914 424.696 17.1914 429.445C17.1914 434.194 13.3426 438.044 8.59488 438.044Z" fill="white" fill-opacity="0.5"/>
</g>
</svg>
