<svg width="691" height="672" viewBox="0 0 691 672" fill="none" xmlns="http://www.w3.org/2000/svg">
<g opacity="0.6">
<path d="M233.833 376.318C303.092 376.318 359.237 320.157 359.237 250.879C359.237 181.601 303.092 125.439 233.833 125.439C164.575 125.439 108.43 181.601 108.43 250.879C108.43 320.157 164.575 376.318 233.833 376.318Z" stroke="#D9D9D9" stroke-opacity="0.1" stroke-width="3.69205" stroke-miterlimit="10"/>
<path d="M220.771 360.422C279.91 360.422 327.851 312.467 327.851 253.312C327.851 194.156 279.91 146.201 220.771 146.201C161.633 146.201 113.691 194.156 113.691 253.312C113.691 312.467 161.633 360.422 220.771 360.422Z" stroke="#D9D9D9" stroke-opacity="0.1" stroke-width="3.32284" stroke-miterlimit="10"/>
<path d="M144.946 318.528C179.608 353.2 235.806 353.2 270.468 318.528C305.129 283.857 305.129 227.643 270.468 192.971C235.806 158.299 179.608 158.299 144.946 192.971C110.285 227.643 110.285 283.857 144.946 318.528Z" stroke="#D9D9D9" stroke-opacity="0.1" stroke-width="2.95364" stroke-miterlimit="10"/>
<path d="M144.833 307.995C172.339 335.509 216.935 335.509 244.44 307.995C271.946 280.482 271.946 235.873 244.44 208.359C216.935 180.846 172.339 180.846 144.833 208.359C117.327 235.873 117.327 280.482 144.833 307.995Z" stroke="#D9D9D9" stroke-opacity="0.1" stroke-width="2.58443" stroke-miterlimit="10"/>
<path d="M144.724 297.467C165.073 317.823 198.067 317.823 218.417 297.467C238.767 277.112 238.767 244.109 218.417 223.753C198.067 203.397 165.073 203.397 144.724 223.753C124.374 244.108 124.374 277.112 144.724 297.467Z" stroke="#D9D9D9" stroke-opacity="0.1" stroke-width="2.21523" stroke-miterlimit="10"/>
<path d="M144.614 286.938C157.808 300.136 179.2 300.136 192.394 286.938C205.588 273.74 205.588 252.343 192.394 239.145C179.2 225.947 157.808 225.947 144.614 239.145C131.42 252.343 131.42 273.74 144.614 286.938Z" stroke="#D9D9D9" stroke-opacity="0.1" stroke-width="1.84602" stroke-miterlimit="10"/>
<g opacity="0.2">
<path d="M656.43 637.46C675.471 618.414 675.471 587.533 656.43 568.487C637.389 549.44 606.518 549.44 587.477 568.487C568.436 587.533 568.436 618.414 587.477 637.46C606.518 656.507 637.389 656.507 656.43 637.46Z" stroke="#D9D9D9" stroke-width="0.837824" stroke-miterlimit="10"/>
<path d="M621.957 598.936V607.01" stroke="#D9D9D9" stroke-width="0.837824" stroke-miterlimit="10"/>
<path d="M625.994 602.973H617.922" stroke="#D9D9D9" stroke-width="0.837824" stroke-miterlimit="10"/>
</g>
</g>
</svg>
