<svg width="570" height="626" viewBox="0 0 570 626" fill="none" xmlns="http://www.w3.org/2000/svg">
<g opacity="0.6">
<path d="M435.06 13.3091C422.872 20.6118 380.278 46.2083 340.375 70.1599C300.497 94.1115 264.109 115.945 259.573 118.686C251.148 123.721 250.675 124.095 251.098 125.191C251.173 125.391 253.666 129.279 256.656 133.865C261.442 141.217 264.258 145.554 268.844 152.657C269.567 153.754 271.586 156.894 273.38 159.636C275.175 162.377 279.362 168.832 282.677 173.967C295.687 194.03 298.428 198.267 303.862 206.617C305.606 209.283 308.298 213.446 309.843 215.838C313.158 220.973 314.629 223.216 318.99 229.92C320.76 232.662 323.377 236.699 324.798 238.893C326.218 241.086 328.187 244.102 329.159 245.622C332.923 251.404 342.394 266.01 346.606 272.49C348.949 276.104 358.744 291.232 362.208 296.541C363.504 298.56 366.744 303.545 369.386 307.632C372.427 312.318 374.42 315.184 374.794 315.333C375.243 315.533 375.567 315.533 376.065 315.308C376.664 315.034 390.322 307.059 396.578 303.32C399.269 301.725 403.556 299.183 422.623 287.967C430.025 283.606 437.029 279.493 438.2 278.82C439.371 278.147 441.565 276.851 443.06 275.954C444.58 275.057 446.425 273.96 447.173 273.537C447.92 273.088 456.519 268.053 466.239 262.321C475.984 256.588 485.779 250.831 488.047 249.485C490.315 248.164 493.854 246.071 495.898 244.874C497.967 243.653 500.808 241.983 502.254 241.136C503.699 240.288 509.033 237.148 514.092 234.157C522.591 229.148 527.601 226.207 534.405 222.219C535.851 221.371 539.39 219.278 542.256 217.583C551.877 211.925 555.167 209.981 562.195 205.894C566.033 203.651 569.373 201.582 569.622 201.283C569.921 200.959 570.046 200.56 569.971 200.137C569.896 199.788 568.301 196.772 566.432 193.407C563.167 187.575 560.949 183.612 551.403 166.49C549.085 162.302 545.87 156.52 544.25 153.654C542.655 150.763 539.39 144.931 537.022 140.694C534.654 136.432 530.567 129.104 527.925 124.369C525.283 119.633 521.47 112.804 519.451 109.165C517.432 105.526 514.391 100.093 512.722 97.0774C511.027 94.0616 509.108 90.6471 508.485 89.4757C507.837 88.3043 505.718 84.491 503.749 81.0017C501.805 77.5124 498.54 71.6802 496.521 68.0414C494.502 64.4025 490.689 57.5735 488.047 52.838C485.405 48.1025 481.592 41.2734 479.573 37.6346C477.554 33.9958 474.314 28.1636 472.345 24.6743C470.401 21.185 466.862 14.8295 464.494 10.5925C462.127 6.33054 459.884 2.34277 459.51 1.66983C458.837 0.498413 458.264 -6.10352e-05 457.566 -6.10352e-05C457.366 -6.10352e-05 447.247 5.9816 435.06 13.3091ZM454.251 6.10623C454.126 6.60471 454.201 6.72931 454.724 6.87888C455.323 7.02841 455.372 7.10318 455.248 8.2995C455.023 10.2934 455.048 10.2685 453.902 9.81985C453.329 9.59555 452.855 9.44598 452.83 9.49585C452.581 9.84476 450.662 15.0538 450.761 15.1286C450.811 15.1784 451.434 15.4526 452.132 15.7267L453.428 16.2003L453.752 15.4027C453.927 14.9541 454.151 14.4058 454.226 14.2064C454.575 13.2593 454.475 14.1566 453.279 23.3534C453.054 24.9734 452.656 28.0141 452.406 30.0827C452.132 32.1763 451.684 35.6158 451.41 37.6844C451.16 39.778 450.761 42.8436 450.537 44.4886C450.163 47.305 449.814 50.0465 448.643 59.0689C447.397 68.8389 447.173 70.6085 446.799 73.4C446.574 75.0449 446.2 78.0607 445.926 80.1293C445.652 82.1731 445.278 85.2138 445.054 86.8587C444.68 89.6751 444.406 91.9431 443.185 101.314C441.963 110.686 441.689 112.954 441.315 115.77C441.091 117.415 440.692 120.481 440.443 122.549C440.169 124.643 439.72 128.082 439.446 130.151C439.197 132.245 438.798 135.31 438.574 136.955C438.2 139.747 437.976 141.566 436.705 151.461C436.406 153.629 435.982 157.069 435.708 159.137C435.433 161.181 435.06 164.222 434.835 165.867C434.461 168.683 434.212 170.602 432.991 180.198C432.717 182.316 432.318 185.407 432.094 187.052C431.72 189.993 431.147 194.429 430.324 200.635C430.125 202.355 429.925 203.775 429.9 203.775C429.876 203.8 426.984 202.504 423.495 200.909C420.006 199.289 412.628 195.924 407.095 193.407L397.051 188.846L397.226 187.401L397.375 185.98L396.303 185.805C395.705 185.731 395.007 185.581 394.783 185.531C394.434 185.432 394.334 185.556 394.334 186.105C394.334 187.575 394.26 187.575 387.331 184.41C383.717 182.765 376.489 179.45 371.28 177.082C355.528 169.904 342.967 164.197 325.122 156.047C315.75 151.785 300.447 144.806 291.101 140.544C269.592 130.749 260.295 126.512 259.448 126.113C258.825 125.814 258.775 125.715 258.925 124.718C259.074 123.646 259.049 123.621 258.351 123.621C257.928 123.621 257.753 123.521 257.903 123.397C258.027 123.272 277.817 111.334 301.868 96.9029C325.919 82.4472 368.663 56.7759 396.827 39.8777C424.99 22.9546 449.391 8.2995 451.036 7.30255C452.681 6.30563 454.101 5.50806 454.226 5.48315C454.326 5.48315 454.35 5.75729 454.251 6.10623ZM462.276 12.9851C464.145 16.3249 467.61 22.5309 469.978 26.7928C472.345 31.0298 476.159 37.8838 478.452 41.9962C480.745 46.1086 483.711 51.4423 485.056 53.8349C486.377 56.2276 489.642 62.0597 492.284 66.7952C494.926 71.5307 499.014 78.8582 501.381 83.1202C503.749 87.3572 507.537 94.1613 509.781 98.199C512.049 102.237 515.837 109.091 518.255 113.402C520.647 117.714 523.937 123.596 525.557 126.487C527.177 129.353 530.417 135.186 532.785 139.448C535.153 143.685 538.966 150.539 541.259 154.651C543.552 158.763 547.365 165.592 549.733 169.854C552.101 174.091 555.341 179.923 556.961 182.815C558.581 185.681 560.475 189.12 561.198 190.416C561.921 191.712 563.242 194.105 564.164 195.725C565.061 197.345 565.809 198.716 565.809 198.791C565.809 198.84 565.31 198.89 564.687 198.89H563.541L563.94 198.143C564.139 197.744 564.313 197.32 564.313 197.196C564.313 196.872 558.805 194.828 558.581 195.052C558.332 195.351 557.484 197.644 557.609 197.744C557.659 197.769 558.431 198.093 559.329 198.417L560.949 199.015L558.332 199.189C556.886 199.264 552.475 199.464 548.487 199.613C544.524 199.788 538.916 200.012 536.025 200.137C533.159 200.261 527.925 200.485 524.436 200.635C520.946 200.785 515.563 201.009 512.472 201.133C506.217 201.408 497.917 201.757 488.92 202.13C485.63 202.28 480.296 202.504 477.081 202.629C470.052 202.928 461.778 203.277 453.154 203.626C449.665 203.775 444.58 204 441.864 204.124C439.147 204.274 436.032 204.374 434.935 204.374C433.016 204.374 432.966 204.349 433.066 203.8C433.141 203.501 433.265 202.629 433.34 201.881C433.44 201.133 433.714 198.816 433.988 196.772C434.262 194.703 434.686 191.338 434.96 189.295C435.234 187.226 435.608 184.21 435.832 182.565C436.231 179.5 436.73 175.711 437.826 167.237C438.15 164.571 438.674 160.633 438.948 158.514C439.222 156.396 439.521 153.953 439.621 153.081C439.695 152.233 439.87 151.535 439.994 151.535C440.094 151.535 440.892 151.81 441.739 152.159C442.587 152.508 443.334 152.732 443.409 152.657C443.559 152.483 444.431 150.239 444.431 150.015C444.431 149.94 443.484 149.492 442.312 149.043C440.468 148.32 440.219 148.171 440.319 147.697C440.393 147.423 440.543 146.277 440.692 145.18C440.967 142.862 441.739 136.781 442.312 132.469C442.537 130.824 442.911 127.783 443.185 125.74C443.459 123.671 443.908 120.207 444.182 118.013C444.456 115.82 444.904 112.331 445.179 110.287C445.453 108.218 445.827 105.202 446.051 103.558C446.275 101.913 446.674 98.822 446.948 96.7035C448.169 87.108 448.419 85.1888 448.793 82.3725C449.166 79.5561 449.441 77.2881 450.662 67.9168C451.883 58.5455 452.157 56.2774 452.531 53.4611C452.755 51.8161 453.154 48.7256 453.428 46.6071C454.65 37.0115 454.899 35.0924 455.273 32.276C455.497 30.6311 455.871 27.5655 456.145 25.4719C456.419 23.4032 456.868 19.9637 457.142 17.8702C457.416 15.8015 457.79 12.7359 458.014 11.0909C458.413 7.82596 458.637 6.65454 458.787 6.77917C458.837 6.82901 460.407 9.62045 462.276 12.9851ZM261.242 130.35C263.361 131.322 269.367 134.089 274.577 136.457C279.786 138.824 290.503 143.709 298.379 147.298C306.254 150.887 313.881 154.377 315.327 155.025C316.772 155.673 325.62 159.71 335.016 163.997C344.412 168.284 353.26 172.322 354.706 172.97C356.151 173.618 364.999 177.655 374.396 181.942C383.792 186.229 391.942 189.943 392.54 190.217C393.213 190.516 393.587 190.84 393.587 191.139C393.587 191.513 393.861 191.638 394.958 191.787C396.777 192.011 428.879 206.567 428.804 207.14C428.754 207.339 427.657 209.558 426.336 212.1C422.099 220.275 419.457 225.409 412.03 239.765C408.018 247.516 403.93 255.417 402.933 257.336C401.936 259.255 398.571 265.76 395.456 271.792C388.926 284.428 379.181 303.221 378.832 303.918C378.682 304.193 378.508 304.267 378.408 304.143C378.333 303.993 377.636 303.819 376.863 303.719L375.492 303.545L375.019 306.486C374.769 308.106 374.67 309.427 374.794 309.476C375.517 309.726 375.692 310 375.442 310.448C375.243 310.822 374.919 310.448 373.274 307.906C370.308 303.32 366.046 296.765 362.208 290.858C360.289 287.917 357.996 284.378 357.124 283.007C356.226 281.637 353.186 276.926 350.344 272.54C343.59 262.146 339.777 256.289 336.512 251.23C335.066 248.962 332.3 244.7 330.356 241.759C328.436 238.818 324.997 233.484 322.679 229.92C320.361 226.356 316.947 221.072 315.077 218.206C313.208 215.315 310.417 211.003 308.846 208.611C307.301 206.218 305.432 203.352 304.734 202.255C301.644 197.495 295.762 188.422 292.895 183.986C291.176 181.369 288.035 176.534 285.917 173.269C283.798 170.004 280.832 165.443 279.337 163.125C277.817 160.782 275.798 157.642 274.826 156.146C273.829 154.626 271.461 150.987 269.567 148.046C265.654 142.04 259.448 132.469 257.803 129.952C257.205 129.029 256.881 128.357 257.055 128.431C257.23 128.506 259.124 129.378 261.242 130.35ZM557.684 204.897C555.092 206.417 551.353 208.635 549.359 209.807C547.365 210.978 544.3 212.798 542.505 213.844C540.736 214.891 536.922 217.134 534.031 218.829C531.165 220.524 527.352 222.767 525.557 223.814C523.788 224.861 520.024 227.079 517.208 228.724C514.391 230.369 509.581 233.21 506.491 235.03C503.4 236.849 499.263 239.291 497.269 240.463C495.275 241.609 493.157 242.88 492.533 243.254C491.91 243.628 489.069 245.323 486.178 246.993C483.312 248.688 479.498 250.931 477.704 251.978C475.934 253.024 472.171 255.243 469.355 256.888C466.538 258.533 461.728 261.374 458.637 263.193C455.547 265.038 452.132 267.031 451.036 267.679C449.017 268.851 444.232 271.667 438.325 275.157C436.555 276.203 432.792 278.422 429.975 280.067C427.159 281.736 418.809 286.646 411.407 291.008C404.005 295.37 397.001 299.482 395.83 300.155C393.761 301.351 388.178 304.641 382.371 308.081C380.801 309.028 379.505 309.751 379.455 309.701C379.43 309.676 381.524 305.489 384.141 300.429C389.773 289.537 399.394 270.969 401.936 266.059C404.055 261.972 415.844 239.192 424.043 223.315C430.798 210.255 431.969 208.037 432.168 207.813C432.268 207.713 437.901 207.414 444.68 207.115C451.459 206.841 462.301 206.392 468.731 206.118C475.187 205.844 483.038 205.52 486.178 205.37C489.343 205.246 494.652 205.022 498.017 204.872C501.381 204.722 506.64 204.498 509.731 204.374C512.821 204.249 520.946 203.9 527.8 203.601C534.654 203.327 544.798 202.878 550.356 202.629C555.914 202.405 560.899 202.18 561.422 202.155C562.32 202.13 561.996 202.38 557.684 204.897Z" fill="#D9D9D9" fill-opacity="0.1"/>
<path d="M448.366 20.6368C447.793 22.0823 447.269 23.3534 447.22 23.4531C447.17 23.6027 449.513 24.6744 449.911 24.6744C450.111 24.6744 452.279 19.241 452.129 19.0915C452.08 19.0416 451.457 18.7675 450.734 18.4684L449.463 17.9699L448.366 20.6368Z" fill="#D9D9D9" fill-opacity="0.1"/>
<path d="M444.856 29.3101L443.734 32.1514L444.632 32.5502C446.526 33.3477 446.601 33.2979 447.797 30.3569C448.395 28.8615 448.794 27.6153 448.694 27.5654C448.594 27.4907 447.946 27.2165 447.249 26.9423L446.002 26.4439L444.856 29.3101Z" fill="#D9D9D9" fill-opacity="0.1"/>
<path d="M441.441 37.8589C440.843 39.3792 440.419 40.6752 440.469 40.7251C440.519 40.7749 441.167 41.074 441.889 41.3482L443.21 41.8716L443.41 41.2983C443.534 40.9993 444.033 39.7531 444.531 38.5318C445.03 37.2856 445.429 36.2638 445.429 36.2139C445.429 36.1142 443.709 35.4164 443.061 35.2419C442.587 35.1173 442.413 35.3914 441.441 37.8589Z" fill="#D9D9D9" fill-opacity="0.1"/>
<path d="M439.096 43.8156C438.846 44.2144 436.927 49.1742 437.002 49.224C437.152 49.3736 439.769 50.3705 439.818 50.2957C440.043 49.9717 441.987 44.8126 441.912 44.7378C441.787 44.6381 439.445 43.6162 439.32 43.6162C439.27 43.6162 439.17 43.691 439.096 43.8156Z" fill="#D9D9D9" fill-opacity="0.1"/>
<path d="M434.639 54.8817L433.492 57.6981L434.664 58.2464C435.312 58.5455 435.96 58.7947 436.109 58.7947C436.383 58.8196 438.452 54.0592 438.452 53.4361C438.452 53.1869 438.028 52.9626 436.059 52.165C435.885 52.1152 435.312 53.2367 434.639 54.8817Z" fill="#D9D9D9" fill-opacity="0.1"/>
<path d="M431.245 63.3557C430.671 64.7763 430.223 66.0225 430.223 66.1721C430.223 66.2967 430.821 66.6456 431.569 66.9447L432.914 67.4681L434.036 64.6268L435.182 61.7855L434.036 61.287C433.438 61.0378 432.765 60.8135 432.59 60.8135C432.416 60.8135 431.818 61.96 431.245 63.3557Z" fill="#D9D9D9" fill-opacity="0.1"/>
<path d="M427.759 72.0292C427.16 73.5495 426.712 74.8206 426.762 74.8704C426.811 74.8954 427.459 75.1695 428.182 75.4686L429.503 75.992L429.703 75.4437C429.827 75.1446 430.326 73.8984 430.824 72.6772C431.323 71.431 431.721 70.4091 431.721 70.3593C431.721 70.2596 429.977 69.5368 429.379 69.3872C428.905 69.2876 428.731 69.6116 427.759 72.0292Z" fill="#D9D9D9" fill-opacity="0.1"/>
<path d="M425.261 78.31C425.136 78.634 424.638 79.8802 424.139 81.1014C423.641 82.3227 423.267 83.3695 423.317 83.3944C423.442 83.519 426.059 84.516 426.108 84.4412C426.233 84.2418 428.227 79.1075 428.227 78.958C428.227 78.7835 427.13 78.2601 426.034 77.9112C425.61 77.7617 425.435 77.8614 425.261 78.31Z" fill="#D9D9D9" fill-opacity="0.1"/>
<path d="M420.957 89.0769L419.836 91.9182L421.207 92.4416C421.954 92.7407 422.602 92.94 422.652 92.8902C422.777 92.7656 424.995 87.3821 424.92 87.3572C424.895 87.3322 424.372 87.1079 423.749 86.8836C423.126 86.6344 422.503 86.3851 422.353 86.3353C422.229 86.2605 421.581 87.5067 420.957 89.0769Z" fill="#D9D9D9" fill-opacity="0.1"/>
<path d="M418.659 94.909C418.485 95.1832 416.516 100.193 416.516 100.342C416.516 100.567 418.834 101.464 419.133 101.364C419.357 101.265 421.077 97.202 421.301 96.2549C421.376 95.8811 418.858 94.61 418.659 94.909Z" fill="#D9D9D9" fill-opacity="0.1"/>
<path d="M415.166 103.632C414.942 104.006 412.998 108.991 413.072 109.016C413.546 109.34 415.789 110.087 415.864 109.963C416.013 109.714 418.007 104.704 418.007 104.554C418.007 104.43 415.789 103.433 415.49 103.433C415.39 103.433 415.241 103.508 415.166 103.632Z" fill="#D9D9D9" fill-opacity="0.1"/>
<path d="M411.158 113.577C410.784 114.524 410.285 115.795 410.036 116.418L409.562 117.59L410.983 118.088C411.756 118.387 412.404 118.587 412.429 118.562C412.454 118.537 412.977 117.266 413.6 115.72L414.722 112.954L413.351 112.43C412.603 112.131 411.955 111.907 411.905 111.907C411.855 111.907 411.531 112.655 411.158 113.577Z" fill="#D9D9D9" fill-opacity="0.1"/>
<path d="M407.321 123.148C406.723 124.668 406.324 125.989 406.449 126.089C406.897 126.487 408.866 127.135 409.041 126.936C409.24 126.687 411.309 121.552 411.209 121.503C411.159 121.478 410.461 121.179 408.667 120.481C408.542 120.431 407.919 121.627 407.321 123.148Z" fill="#D9D9D9" fill-opacity="0.1"/>
<path d="M261.942 125.291C261.893 126.088 261.868 126.761 261.893 126.811C261.942 126.911 267.799 127.384 267.849 127.31C267.874 127.26 267.974 126.587 268.049 125.814L268.173 124.394L267.401 124.269C266.952 124.194 265.581 124.07 264.31 123.995L262.042 123.845L261.942 125.291Z" fill="#D9D9D9" fill-opacity="0.1"/>
<path d="M271.109 126.014C271.009 126.786 270.984 127.459 271.009 127.484C271.159 127.609 276.966 127.983 277.09 127.883C277.14 127.833 277.19 127.135 277.19 126.363V124.942L275.146 124.792C274 124.693 272.679 124.618 272.18 124.618H271.283L271.109 126.014Z" fill="#D9D9D9" fill-opacity="0.1"/>
<path d="M280.306 126.487C280.207 127.26 280.207 127.983 280.331 128.107C280.456 128.207 281.876 128.381 283.497 128.481L286.413 128.656V127.16V125.665L284.493 125.515C283.422 125.416 282.076 125.291 281.503 125.216L280.481 125.092L280.306 126.487Z" fill="#D9D9D9" fill-opacity="0.1"/>
<path d="M289.552 126.238C289.477 126.462 289.402 127.135 289.402 127.733V128.83L290.723 128.955C291.421 129.029 292.767 129.154 293.664 129.229C295.558 129.378 295.633 129.304 295.633 127.459C295.633 126.188 295.708 126.213 292.119 125.989C290.025 125.864 289.701 125.889 289.552 126.238Z" fill="#D9D9D9" fill-opacity="0.1"/>
<path d="M298.625 128.082V129.603L299.572 129.628C300.071 129.628 301.416 129.727 302.538 129.802L304.582 129.977L304.731 128.531C304.831 127.733 304.856 127.036 304.806 126.986C304.756 126.936 303.36 126.811 301.666 126.712L298.625 126.537V128.082Z" fill="#D9D9D9" fill-opacity="0.1"/>
<path d="M307.855 128.456C307.855 129.229 307.855 129.927 307.855 130.026C307.855 130.226 313.563 130.724 313.713 130.55C313.737 130.5 313.862 129.852 313.937 129.054L314.111 127.659L312.167 127.484C311.096 127.409 309.7 127.285 309.052 127.21L307.855 127.06V128.456Z" fill="#D9D9D9" fill-opacity="0.1"/>
<path d="M317.075 128.556C317.075 128.955 317 129.628 316.925 130.051C316.776 130.799 316.776 130.799 318.097 130.949C318.844 131.023 320.24 131.148 321.237 131.223L323.007 131.347L323.106 129.827C323.156 128.93 323.081 128.257 322.932 128.232C322.807 128.182 321.411 128.082 319.891 127.983L317.075 127.833V128.556Z" fill="#D9D9D9" fill-opacity="0.1"/>
<path d="M326.19 129.528C325.866 131.621 325.692 131.497 329.057 131.746C330.702 131.871 332.122 131.921 332.172 131.871C332.222 131.821 332.272 131.123 332.272 130.35V128.93L330.353 128.755C329.306 128.68 327.985 128.606 327.412 128.606C326.39 128.606 326.34 128.631 326.19 129.528Z" fill="#D9D9D9" fill-opacity="0.1"/>
<path d="M404.729 129.678C404.53 130.126 404.081 131.273 403.683 132.27L402.985 134.064L401.29 133.915L399.57 133.765V135.26V136.756L401.838 137.055C403.359 137.254 404.904 137.678 406.599 138.351C407.97 138.899 409.116 139.323 409.166 139.273C409.191 139.223 409.415 138.7 409.639 138.077C409.889 137.454 410.138 136.831 410.213 136.681C410.263 136.532 409.365 136.058 408.169 135.584C406.998 135.136 406.05 134.737 406.05 134.687C406.05 134.637 406.449 133.566 406.948 132.344C407.446 131.098 407.82 130.051 407.77 130.026C407.72 129.977 407.072 129.727 406.35 129.428L405.054 128.905L404.729 129.678Z" fill="#D9D9D9" fill-opacity="0.1"/>
<path d="M335.387 130.176C335.088 132.22 335.063 132.195 338.104 132.419C339.574 132.544 340.945 132.569 341.145 132.494C341.394 132.394 341.494 131.921 341.494 130.998V129.653L339.824 129.478C338.877 129.403 337.556 129.279 336.833 129.204L335.537 129.079L335.387 130.176Z" fill="#D9D9D9" fill-opacity="0.1"/>
<path d="M344.492 131.297V132.818L345.813 132.942C346.511 133.017 347.857 133.142 348.754 133.217L350.399 133.341L350.574 132.419C350.648 131.896 350.723 131.173 350.723 130.774C350.723 130.126 350.673 130.101 349.527 130.101C348.854 130.101 347.458 130.026 346.411 129.952L344.492 129.777V131.297Z" fill="#D9D9D9" fill-opacity="0.1"/>
<path d="M353.691 131.97C353.641 132.793 353.691 133.441 353.84 133.491C353.99 133.541 355.336 133.665 356.856 133.765L359.647 133.964L359.822 132.519C359.897 131.696 359.946 130.998 359.897 130.949C359.847 130.899 358.451 130.799 356.781 130.699L353.765 130.525L353.691 131.97Z" fill="#D9D9D9" fill-opacity="0.1"/>
<path d="M362.886 132.519C362.836 133.316 362.836 134.039 362.911 134.114C362.986 134.214 364.382 134.363 366.002 134.463L368.918 134.612V133.665C368.918 133.142 368.993 132.469 369.067 132.17C369.192 131.671 369.092 131.621 367.497 131.497C366.575 131.397 365.179 131.273 364.382 131.198L362.986 131.073L362.886 132.519Z" fill="#D9D9D9" fill-opacity="0.1"/>
<path d="M372.024 133.217C371.95 133.989 371.9 134.687 371.974 134.737C372.074 134.837 377.956 135.335 378.056 135.26C378.156 135.161 378.205 132.344 378.106 132.245C378.056 132.195 376.71 132.07 375.115 131.995L372.199 131.821L372.024 133.217Z" fill="#D9D9D9" fill-opacity="0.1"/>
<path d="M381.279 133.341C380.93 135.509 380.905 135.485 383.198 135.659C384.319 135.759 385.715 135.833 386.313 135.833H387.36V134.338V132.843L386.563 132.818C386.114 132.818 384.768 132.718 383.572 132.643L381.428 132.469L381.279 133.341Z" fill="#D9D9D9" fill-opacity="0.1"/>
<path d="M390.523 133.266C390.423 133.341 390.348 134.014 390.348 134.737C390.348 136.282 390.224 136.232 393.738 136.457C396.579 136.631 396.579 136.631 396.579 134.537V133.615L395.283 133.491C392.068 133.167 390.672 133.092 390.523 133.266Z" fill="#D9D9D9" fill-opacity="0.1"/>
<path d="M412.554 138.974C412.255 139.747 412.055 140.42 412.08 140.469C412.404 140.793 417.613 142.563 417.763 142.413C418.012 142.114 418.859 139.821 418.735 139.747C418.685 139.697 417.563 139.248 416.267 138.775C414.971 138.276 413.725 137.803 413.476 137.703C413.152 137.578 412.953 137.852 412.554 138.974Z" fill="#D9D9D9" fill-opacity="0.1"/>
<path d="M401.708 140.37C401.409 141.267 400.836 145.928 400.985 146.077C401.284 146.351 403.802 146.626 403.802 146.376C403.802 146.127 404.5 141.915 404.674 141.142C404.774 140.719 404.649 140.594 404.051 140.469C403.627 140.395 402.954 140.245 402.556 140.17C402.057 140.071 401.783 140.145 401.708 140.37Z" fill="#D9D9D9" fill-opacity="0.1"/>
<path d="M421.182 142.114C420.958 142.713 420.759 143.336 420.709 143.51C420.634 143.834 421.282 144.158 424.696 145.454L426.267 146.027L426.74 144.906C427.014 144.283 427.239 143.61 427.239 143.435C427.239 143.136 422.503 141.068 421.855 141.068C421.706 141.068 421.407 141.541 421.182 142.114Z" fill="#D9D9D9" fill-opacity="0.1"/>
<path d="M429.729 145.429C429.455 146.077 429.23 146.725 429.23 146.9C429.23 147.199 434.614 149.492 434.813 149.267C435.112 148.993 435.91 146.551 435.76 146.451C435.661 146.401 434.514 145.928 433.218 145.429C431.922 144.931 430.701 144.457 430.551 144.382C430.352 144.308 430.028 144.706 429.729 145.429Z" fill="#D9D9D9" fill-opacity="0.1"/>
<path d="M400.214 149.567C400.04 150.115 399.292 155.1 399.392 155.174C399.442 155.249 402.308 155.723 402.308 155.673C402.557 154.402 403.28 149.666 403.23 149.641C403.205 149.616 402.532 149.517 401.76 149.417C400.638 149.267 400.289 149.317 400.214 149.567Z" fill="#D9D9D9" fill-opacity="0.1"/>
<path d="M398.821 158.29C398.821 158.34 398.596 159.686 398.322 161.256C397.973 163.275 397.923 164.147 398.098 164.271C398.472 164.496 400.615 164.77 400.765 164.62C400.839 164.571 401.114 163.25 401.363 161.729C401.886 158.689 401.836 158.539 400.565 158.514C400.216 158.514 399.693 158.439 399.394 158.365C399.07 158.265 398.821 158.24 398.821 158.29Z" fill="#D9D9D9" fill-opacity="0.1"/>
<path d="M397.321 167.412C397.321 167.611 396.549 172.396 396.449 172.87C396.349 173.368 396.474 173.418 397.695 173.593C398.443 173.668 399.141 173.742 399.24 173.742C399.415 173.742 400.237 169.331 400.287 168.209C400.312 167.91 399.938 167.736 398.817 167.561C397.994 167.437 397.321 167.362 397.321 167.412Z" fill="#D9D9D9" fill-opacity="0.1"/>
<path d="M395.411 179.425L394.938 182.416L395.561 182.54C395.91 182.615 396.607 182.74 397.106 182.815L397.978 182.964L398.427 180.073C398.701 178.403 398.801 177.082 398.676 176.958C398.551 176.858 397.878 176.683 397.181 176.584L395.91 176.434L395.411 179.425Z" fill="#D9D9D9" fill-opacity="0.1"/>
<path d="M446.748 152.458C446.424 153.23 446.199 153.878 446.249 153.903C446.523 154.078 451.583 156.022 451.782 156.022C451.932 156.022 452.281 155.399 452.58 154.626L453.128 153.255L452.58 153.031C451.234 152.508 447.371 151.037 447.346 151.037C447.321 151.037 447.047 151.685 446.748 152.458Z" fill="#D9D9D9" fill-opacity="0.1"/>
<path d="M455.273 155.897C455.023 156.645 454.874 157.293 454.924 157.343C455.098 157.492 460.482 159.511 460.507 159.436C460.706 159.112 461.628 156.67 461.578 156.62C461.429 156.47 456.245 154.526 456.02 154.526C455.871 154.526 455.547 155.149 455.273 155.897Z" fill="#D9D9D9" fill-opacity="0.1"/>
<path d="M463.901 159.162C463.602 159.96 463.403 160.608 463.428 160.658C463.727 160.932 468.737 162.751 468.986 162.651C469.385 162.502 470.207 160.259 469.958 160.01C469.758 159.835 464.774 157.766 464.525 157.766C464.475 157.766 464.201 158.39 463.901 159.162Z" fill="#D9D9D9" fill-opacity="0.1"/>
<path d="M472.521 162.302C472.297 162.901 472.097 163.524 472.048 163.698C471.973 164.072 477.331 166.315 477.631 166.016C477.73 165.941 478.004 165.293 478.279 164.62L478.777 163.349L476.06 162.302C474.59 161.729 473.269 161.256 473.144 161.256C473.02 161.256 472.746 161.729 472.521 162.302Z" fill="#D9D9D9" fill-opacity="0.1"/>
<path d="M481.197 165.418C480.35 167.462 480.25 167.337 483.191 168.459C484.637 169.032 485.933 169.48 486.057 169.48C486.232 169.48 486.93 167.885 487.104 167.038C487.154 166.839 486.157 166.29 484.437 165.592C482.942 164.994 481.696 164.496 481.646 164.496C481.621 164.496 481.397 164.919 481.197 165.418Z" fill="#D9D9D9" fill-opacity="0.1"/>
<path d="M489.567 169.281C489.268 169.979 489.119 170.652 489.218 170.727C489.343 170.826 490.489 171.325 491.785 171.848C493.081 172.347 494.278 172.82 494.452 172.895C494.627 172.97 494.926 172.596 495.15 172.073C495.997 170.029 496.097 170.153 493.156 169.007C491.686 168.459 490.415 167.985 490.29 167.985C490.19 167.985 489.866 168.558 489.567 169.281Z" fill="#D9D9D9" fill-opacity="0.1"/>
<path d="M498.091 172.646C497.767 173.418 497.543 174.091 497.593 174.116C497.742 174.241 502.951 176.21 503.151 176.21C503.375 176.21 504.223 174.191 504.272 173.618C504.272 173.468 499.038 171.225 498.69 171.225C498.665 171.225 498.39 171.873 498.091 172.646Z" fill="#D9D9D9" fill-opacity="0.1"/>
<path d="M506.86 175.637C506.112 177.406 506.137 177.431 508.679 178.478C512.144 179.898 511.82 179.898 512.443 178.303C512.742 177.531 512.941 176.858 512.891 176.808C512.767 176.683 507.633 174.714 507.433 174.714C507.334 174.714 507.059 175.138 506.86 175.637Z" fill="#D9D9D9" fill-opacity="0.1"/>
<path d="M515.234 179.35C514.935 180.123 514.735 180.796 514.785 180.846C514.91 180.97 520.044 182.939 520.243 182.939C520.542 182.939 521.489 180.671 521.34 180.322C521.29 180.173 520.193 179.624 518.897 179.151C517.626 178.652 516.405 178.179 516.181 178.104C515.882 177.979 515.657 178.254 515.234 179.35Z" fill="#D9D9D9" fill-opacity="0.1"/>
<path d="M523.763 182.84L523.215 184.21L523.763 184.435C527.228 185.78 528.972 186.453 529.022 186.379C529.221 186.03 530.144 183.587 530.094 183.562C529.845 183.388 524.76 181.444 524.561 181.444C524.436 181.444 524.062 182.067 523.763 182.84Z" fill="#D9D9D9" fill-opacity="0.1"/>
<path d="M532.417 186.08C532.093 186.827 531.894 187.5 531.969 187.55C532.019 187.625 533.315 188.148 534.835 188.771L537.602 189.843L538.125 188.472C538.424 187.725 538.574 187.027 538.474 186.927C538.274 186.752 537.377 186.379 534.486 185.282L532.966 184.709L532.417 186.08Z" fill="#D9D9D9" fill-opacity="0.1"/>
<path d="M540.911 189.469C540.612 190.167 540.462 190.84 540.562 190.94C540.961 191.314 545.995 193.133 546.145 192.959C546.394 192.684 547.192 190.416 547.092 190.317C546.942 190.167 541.908 188.173 541.659 188.173C541.534 188.173 541.21 188.746 540.911 189.469Z" fill="#D9D9D9" fill-opacity="0.1"/>
<path d="M549.63 192.485C549.381 193.058 549.131 193.706 549.057 193.906C548.982 194.18 549.605 194.554 551.574 195.326C553.02 195.925 554.316 196.398 554.49 196.398C554.739 196.398 555.412 194.953 555.637 193.931C555.686 193.731 555.163 193.382 554.216 193.033C553.393 192.709 552.122 192.211 551.4 191.937L550.079 191.413L549.63 192.485Z" fill="#D9D9D9" fill-opacity="0.1"/>
<path d="M392.487 197.519C392.238 199.115 392.113 200.485 392.163 200.535C392.263 200.66 394.905 201.108 395.004 201.034C395.154 200.909 395.976 195.102 395.852 195.052C395.777 195.002 395.079 194.878 394.307 194.778L392.936 194.603L392.487 197.519Z" fill="#D9D9D9" fill-opacity="0.1"/>
<path d="M391.498 203.925C391.174 204.972 390.626 209.483 390.775 209.632C390.875 209.732 391.548 209.882 392.271 209.981C393.716 210.181 393.567 210.43 394.09 206.991C394.24 206.019 394.414 204.997 394.489 204.698C394.564 204.224 394.464 204.124 393.666 204C393.143 203.925 392.47 203.8 392.146 203.726C391.822 203.651 391.548 203.75 391.498 203.925Z" fill="#D9D9D9" fill-opacity="0.1"/>
<path d="M389.975 213.371C389.776 214.293 389.103 218.655 389.178 218.729C389.203 218.754 389.876 218.879 390.673 219.004C392.318 219.303 392.094 219.677 392.717 215.739C392.941 214.393 393.091 213.246 393.041 213.221C392.991 213.171 392.318 213.072 391.545 212.972C390.2 212.798 390.125 212.823 389.975 213.371Z" fill="#D9D9D9" fill-opacity="0.1"/>
<path d="M388.504 222.618C387.731 227.154 387.681 227.677 387.905 227.827C388.329 228.101 390.423 228.325 390.597 228.126C390.697 228.001 390.896 226.979 391.071 225.808C391.245 224.636 391.445 223.39 391.519 223.041C391.669 222.294 391.544 222.244 389.675 221.945C388.653 221.795 388.628 221.795 388.504 222.618Z" fill="#D9D9D9" fill-opacity="0.1"/>
<path d="M386.679 233.833C386.405 235.453 386.256 236.849 386.355 236.899C386.455 236.974 387.153 237.073 387.9 237.173L389.246 237.323L389.695 234.406C389.944 232.811 390.094 231.465 390.044 231.416C389.994 231.366 389.321 231.216 388.548 231.092L387.153 230.867L386.679 233.833Z" fill="#D9D9D9" fill-opacity="0.1"/>
<path d="M385.287 242.482C384.639 246.27 384.515 245.971 386.883 246.37L387.78 246.494L388.228 243.504C388.478 241.859 388.652 240.463 388.577 240.413C388.528 240.363 387.855 240.239 387.082 240.164L385.686 239.989L385.287 242.482Z" fill="#D9D9D9" fill-opacity="0.1"/>
<path d="M384.236 249.286C384.111 249.685 383.363 254.32 383.363 254.819C383.363 255.043 383.812 255.218 384.759 255.342C385.532 255.442 386.18 255.467 386.254 255.417C386.304 255.367 386.554 254.021 386.803 252.426L387.251 249.51L386.254 249.361C385.681 249.261 385.033 249.136 384.784 249.086C384.56 249.012 384.31 249.111 384.236 249.286Z" fill="#D9D9D9" fill-opacity="0.1"/>
<path d="M382.768 258.507C382.644 258.881 381.871 263.517 381.871 263.891C381.871 264.09 384.613 264.763 384.787 264.589C384.962 264.439 385.784 258.807 385.659 258.682C385.56 258.582 384.887 258.433 384.189 258.333C383.192 258.208 382.843 258.233 382.768 258.507Z" fill="#D9D9D9" fill-opacity="0.1"/>
<path d="M381.253 267.729C380.879 269.424 380.431 273.063 380.58 273.188C380.68 273.287 381.328 273.412 382.051 273.512C383.546 273.711 383.447 273.836 383.87 270.795C384.02 269.698 384.219 268.552 384.294 268.253C384.394 267.829 384.269 267.704 383.646 267.58C383.222 267.505 382.549 267.355 382.126 267.281C381.502 267.156 381.378 267.231 381.253 267.729Z" fill="#D9D9D9" fill-opacity="0.1"/>
<path d="M379.879 276.428C379.879 276.478 379.655 277.798 379.381 279.369C379.106 280.939 378.907 282.26 378.957 282.285C378.982 282.31 379.655 282.434 380.427 282.559C381.674 282.783 381.873 282.758 381.973 282.409C382.222 281.562 382.92 276.851 382.82 276.777C382.695 276.627 379.879 276.303 379.879 276.428Z" fill="#D9D9D9" fill-opacity="0.1"/>
<path d="M378.384 285.525C378.384 285.649 378.159 286.97 377.91 288.491C377.661 289.986 377.462 291.257 377.486 291.282C377.686 291.482 380.253 291.83 380.378 291.681C380.477 291.556 380.751 290.26 381.001 288.765C381.449 285.924 381.399 285.649 380.353 285.624C380.128 285.624 379.58 285.55 379.156 285.475C378.733 285.375 378.384 285.4 378.384 285.525Z" fill="#D9D9D9" fill-opacity="0.1"/>
<path d="M376.544 296.94C375.995 300.554 375.97 300.479 377.092 300.678C379.136 301.002 379.011 301.102 379.485 298.136C379.709 296.666 379.883 295.345 379.883 295.17C379.883 295.021 379.41 294.821 378.836 294.722C378.238 294.647 377.59 294.497 377.366 294.447C377.017 294.348 376.892 294.771 376.544 296.94Z" fill="#D9D9D9" fill-opacity="0.1"/>
<path d="M57.9461 495.716C63.18 498.852 81.4718 509.844 98.6076 520.13C115.733 530.415 131.359 539.791 133.307 540.969C136.925 543.131 137.128 543.291 136.947 543.762C136.914 543.848 135.844 545.518 134.56 547.487C132.505 550.644 131.295 552.507 129.326 555.557C129.015 556.028 128.148 557.377 127.378 558.554C126.607 559.731 124.809 562.504 123.386 564.708C117.798 573.325 116.621 575.144 114.288 578.73C113.539 579.875 112.383 581.662 111.719 582.69C110.296 584.895 109.664 585.858 107.791 588.737C107.031 589.914 105.907 591.648 105.297 592.59C104.687 593.532 103.842 594.827 103.424 595.48C101.808 597.963 97.7407 604.235 95.9318 607.018C94.9257 608.57 90.7194 615.067 89.2316 617.347C88.6751 618.214 87.2836 620.354 86.1491 622.11C84.8433 624.122 83.987 625.353 83.8265 625.417C83.6338 625.503 83.4947 625.503 83.2806 625.406C83.0238 625.289 77.1584 621.864 74.4719 620.258C73.3159 619.573 71.475 618.481 63.287 613.665C60.1082 611.792 57.1006 610.026 56.5975 609.737C56.0945 609.448 55.1526 608.891 54.5104 608.506C53.8575 608.121 53.0655 607.65 52.7444 607.468C52.4233 607.275 48.7307 605.113 44.5564 602.651C40.3715 600.19 36.1651 597.717 35.1911 597.139C34.2171 596.572 32.6973 595.673 31.8196 595.159C30.9312 594.635 29.7111 593.917 29.0903 593.554C28.4695 593.19 26.179 591.841 24.0062 590.557C20.3564 588.405 18.2051 587.142 15.2831 585.43C14.6623 585.066 13.1425 584.167 11.9116 583.439C7.78017 581.009 6.36736 580.175 3.34904 578.419C1.70074 577.456 0.266525 576.568 0.159485 576.439C0.0310516 576.3 -0.0224609 576.129 0.00964355 575.947C0.041748 575.797 0.726761 574.502 1.5295 573.057C2.93163 570.552 3.8842 568.851 7.98354 561.497C8.97893 559.699 10.3596 557.216 11.0554 555.985C11.7404 554.744 13.1425 552.239 14.1593 550.42C15.1761 548.589 16.9314 545.443 18.066 543.409C19.2005 541.375 20.8381 538.443 21.7051 536.88C22.572 535.317 23.8778 532.984 24.5949 531.689C25.3227 530.394 26.1469 528.928 26.4145 528.425C26.6927 527.921 27.6025 526.284 28.4481 524.785C29.2829 523.287 30.685 520.782 31.552 519.22C32.419 517.657 34.0566 514.724 35.1911 512.691C36.3256 510.657 37.9632 507.725 38.8302 506.162C39.6972 504.599 41.0886 502.095 41.9341 500.596C42.769 499.098 44.2888 496.368 45.3056 494.549C46.3224 492.719 47.2857 491.006 47.4463 490.717C47.7353 490.214 47.9814 490 48.2811 490C48.3668 490 52.7123 492.569 57.9461 495.716ZM49.7047 492.622C49.7582 492.836 49.7261 492.89 49.5013 492.954C49.2444 493.018 49.223 493.05 49.2765 493.564C49.3729 494.42 49.3622 494.41 49.8545 494.217C50.1007 494.121 50.304 494.057 50.3147 494.078C50.4218 494.228 51.2459 496.465 51.2031 496.497C51.1817 496.518 50.9141 496.636 50.6144 496.754L50.0579 496.957L49.9187 496.615C49.8438 496.422 49.7475 496.186 49.7154 496.101C49.5655 495.694 49.6083 496.079 50.1221 500.029C50.2184 500.725 50.3897 502.03 50.4967 502.919C50.6144 503.818 50.8071 505.295 50.9248 506.183C51.0319 507.082 51.2031 508.399 51.2994 509.105C51.46 510.315 51.6098 511.492 52.1129 515.367C52.648 519.562 52.7444 520.322 52.9049 521.521C53.0013 522.227 53.1618 523.522 53.2795 524.411C53.3973 525.288 53.5578 526.594 53.6541 527.301C53.8147 528.51 53.9324 529.484 54.4569 533.509C54.9813 537.533 55.0991 538.507 55.2596 539.716C55.356 540.423 55.5272 541.739 55.6342 542.628C55.752 543.527 55.9446 545.004 56.0624 545.892C56.1694 546.791 56.3407 548.108 56.437 548.814C56.5975 550.013 56.6939 550.794 57.2397 555.043C57.3682 555.975 57.5501 557.452 57.6678 558.34C57.7856 559.218 57.9461 560.523 58.0425 561.23C58.203 562.439 58.31 563.263 58.8345 567.384C58.9522 568.294 59.1235 569.621 59.2198 570.328C59.3804 571.591 59.6265 573.496 59.9797 576.161C60.0654 576.899 60.151 577.509 60.1617 577.509C60.1724 577.52 61.414 576.964 62.9124 576.279C64.4109 575.583 67.579 574.138 69.9551 573.057L74.2685 571.098L74.1936 570.477L74.1294 569.867L74.5896 569.792C74.8465 569.76 75.1462 569.696 75.2425 569.675C75.3924 569.632 75.4352 569.685 75.4352 569.921C75.4352 570.552 75.4673 570.552 78.4428 569.193C79.9947 568.487 83.0987 567.063 85.3357 566.046C92.1001 562.964 97.4945 560.513 105.158 557.013C109.182 555.183 115.754 552.186 119.768 550.355C129.005 546.149 132.997 544.33 133.361 544.158C133.629 544.03 133.65 543.987 133.586 543.559C133.522 543.099 133.532 543.088 133.832 543.088C134.014 543.088 134.089 543.045 134.025 542.992C133.971 542.938 125.473 537.811 115.144 531.614C104.815 525.406 86.4595 514.382 74.3649 507.125C62.2702 499.858 51.7918 493.564 51.0854 493.136C50.379 492.708 49.7689 492.365 49.7154 492.355C49.6725 492.355 49.6618 492.472 49.7047 492.622ZM46.2582 495.576C45.4555 497.011 43.9677 499.676 42.9509 501.506C41.9341 503.326 40.2965 506.269 39.3118 508.035C38.3271 509.801 37.0535 512.091 36.4755 513.119C35.9082 514.146 34.5061 516.651 33.3716 518.685C32.237 520.718 30.4817 523.865 29.4649 525.695C28.4481 527.515 26.8212 530.437 25.8579 532.171C24.8839 533.905 23.257 536.848 22.2188 538.7C21.1913 540.551 19.7785 543.077 19.0828 544.319C18.3871 545.55 16.9956 548.054 15.9788 549.884C14.962 551.704 13.3244 554.647 12.3397 556.413C11.355 558.179 9.71745 561.112 8.70065 562.942C7.68384 564.762 6.29242 567.266 5.59673 568.508C4.90102 569.739 4.08757 571.216 3.77718 571.773C3.46678 572.329 2.89951 573.357 2.50349 574.052C2.11818 574.748 1.79707 575.337 1.79707 575.369C1.79707 575.39 2.01114 575.412 2.27872 575.412H2.77107L2.59982 575.091C2.51419 574.919 2.43927 574.737 2.43927 574.684C2.43927 574.545 4.80469 573.667 4.90102 573.763C5.00804 573.892 5.37195 574.876 5.31844 574.919C5.29703 574.93 4.96523 575.069 4.57991 575.208L3.8842 575.465L5.00804 575.54C5.62883 575.572 7.5233 575.658 9.23581 575.722C10.9376 575.797 13.3458 575.893 14.5874 575.947C15.8183 576 18.066 576.097 19.5644 576.161C21.0629 576.225 23.3748 576.321 24.702 576.375C27.3885 576.493 30.9526 576.643 34.8165 576.803C36.2293 576.867 38.5198 576.964 39.9005 577.017C42.9188 577.146 46.4723 577.295 50.1756 577.445C51.674 577.509 53.8575 577.606 55.0242 577.659C56.1908 577.724 57.5287 577.766 57.9996 577.766C58.8238 577.766 58.8452 577.756 58.8024 577.52C58.7703 577.392 58.7168 577.017 58.6847 576.696C58.6418 576.375 58.5241 575.38 58.4064 574.502C58.2886 573.613 58.1067 572.169 57.9889 571.291C57.8712 570.403 57.7107 569.107 57.6143 568.401C57.4431 567.085 57.229 565.458 56.7581 561.819C56.6189 560.673 56.3942 558.982 56.2764 558.072C56.1587 557.163 56.0303 556.114 55.9874 555.739C55.9553 555.375 55.8804 555.076 55.8269 555.076C55.7841 555.076 55.4416 555.193 55.0777 555.343C54.7138 555.493 54.3927 555.589 54.3606 555.557C54.2963 555.482 53.9217 554.519 53.9217 554.423C53.9217 554.391 54.3284 554.198 54.8315 554.005C55.6235 553.695 55.7306 553.631 55.6878 553.427C55.6556 553.31 55.5914 552.817 55.5272 552.346C55.4095 551.351 55.0777 548.739 54.8315 546.888C54.7352 546.181 54.5746 544.875 54.4569 543.998C54.3391 543.109 54.1465 541.622 54.0288 540.68C53.911 539.738 53.7184 538.239 53.6006 537.362C53.4829 536.473 53.3223 535.178 53.226 534.472C53.1297 533.765 52.9584 532.438 52.8407 531.528C52.3162 527.408 52.2092 526.584 52.0487 525.374C51.8881 524.165 51.7704 523.191 51.2459 519.166C50.7215 515.142 50.6037 514.168 50.4432 512.958C50.3469 512.252 50.1756 510.925 50.0579 510.015C49.5334 505.894 49.4264 505.07 49.2658 503.861C49.1695 503.154 49.0089 501.838 48.8912 500.939C48.7735 500.05 48.5808 498.573 48.4631 497.674C48.3453 496.786 48.1848 495.469 48.0885 494.763C47.9172 493.361 47.8209 492.858 47.7567 492.911C47.7353 492.933 47.061 494.131 46.2582 495.576ZM132.59 545.978C131.681 546.395 129.101 547.583 126.864 548.6C124.627 549.617 120.025 551.715 116.643 553.256C113.26 554.797 109.985 556.296 109.364 556.574C108.744 556.852 104.944 558.586 100.909 560.427C96.8737 562.268 93.0741 564.002 92.4533 564.28C91.8325 564.559 88.0329 566.292 83.9977 568.133C79.9626 569.974 76.4627 571.569 76.2058 571.687C75.9168 571.815 75.7563 571.954 75.7563 572.083C75.7563 572.243 75.6385 572.297 75.1676 572.361C74.3863 572.458 60.6005 578.708 60.6326 578.954C60.654 579.04 61.125 579.993 61.6923 581.084C63.5118 584.595 64.6463 586.8 67.8359 592.965C69.5591 596.294 71.3144 599.687 71.7426 600.511C72.1707 601.335 73.6156 604.128 74.9535 606.719C77.7578 612.145 81.9427 620.215 82.0926 620.515C82.1568 620.633 82.2317 620.665 82.2745 620.611C82.3066 620.547 82.6063 620.472 82.9381 620.429L83.5268 620.354L83.7302 621.617C83.8372 622.313 83.88 622.88 83.8265 622.902C83.5161 623.009 83.4412 623.127 83.5482 623.319C83.6338 623.48 83.773 623.319 84.4794 622.227C85.7531 620.258 87.5833 617.443 89.2316 614.906C90.0558 613.644 91.0405 612.124 91.4151 611.535C91.8004 610.946 93.1062 608.923 94.3263 607.04C97.2269 602.576 98.8645 600.061 100.267 597.888C100.887 596.914 102.075 595.084 102.91 593.821C103.734 592.558 105.212 590.268 106.207 588.737C107.202 587.207 108.669 584.937 109.471 583.707C110.274 582.465 111.473 580.613 112.147 579.586C112.811 578.558 113.614 577.328 113.913 576.857C115.24 574.812 117.766 570.916 118.997 569.011C119.736 567.887 121.084 565.811 121.994 564.409C122.904 563.007 124.178 561.048 124.82 560.053C125.473 559.046 126.34 557.698 126.757 557.056C127.185 556.403 128.202 554.84 129.015 553.577C130.696 550.998 133.361 546.888 134.067 545.807C134.324 545.411 134.463 545.122 134.388 545.154C134.314 545.186 133.5 545.56 132.59 545.978ZM5.28633 577.991C6.39946 578.644 8.00494 579.597 8.86119 580.1C9.71745 580.603 11.034 581.384 11.8046 581.834C12.5645 582.283 14.2021 583.246 15.4437 583.974C16.6745 584.702 18.3121 585.665 19.0828 586.115C19.8427 586.564 21.4589 587.517 22.6683 588.223C23.8778 588.93 25.9435 590.15 27.2707 590.931C28.5979 591.713 30.3747 592.762 31.2309 593.265C32.0872 593.757 32.9969 594.303 33.2645 594.463C33.5321 594.624 34.7523 595.352 35.9938 596.069C37.2247 596.797 38.8623 597.76 39.6329 598.209C40.3929 598.659 42.009 599.612 43.2185 600.318C44.428 601.024 46.4937 602.245 47.8209 603.026C49.1481 603.818 50.6144 604.674 51.0854 604.952C51.9523 605.456 54.0073 606.665 56.544 608.163C57.3039 608.613 58.9201 609.566 60.1296 610.272C61.3391 610.989 64.9246 613.098 68.1035 614.971C71.2823 616.844 74.2899 618.61 74.793 618.899C75.6814 619.413 78.0789 620.825 80.5727 622.302C81.247 622.709 81.8036 623.02 81.825 622.998C81.8357 622.987 80.9366 621.189 79.8128 619.017C77.3939 614.339 73.2624 606.365 72.1707 604.257C71.2609 602.501 66.1983 592.719 62.6769 585.901C59.7764 580.292 59.2733 579.34 59.1877 579.243C59.1449 579.201 56.726 579.072 53.8147 578.944C50.9034 578.826 46.2475 578.633 43.4861 578.516C40.714 578.398 37.3424 578.259 35.9938 578.194C34.6345 578.141 32.3547 578.045 30.9098 577.98C29.4649 577.916 27.2065 577.82 25.8793 577.766C24.5521 577.713 21.0629 577.563 18.1195 577.435C15.1761 577.317 10.8199 577.124 8.43307 577.017C6.04625 576.921 3.90561 576.824 3.68085 576.814C3.29553 576.803 3.43466 576.91 5.28633 577.991Z" fill="#D9D9D9" fill-opacity="0.1"/>
<path d="M52.23 498.862C52.4761 499.483 52.7009 500.029 52.7223 500.072C52.7437 500.136 51.7376 500.596 51.5664 500.596C51.4807 500.596 50.5496 498.263 50.6138 498.199C50.6352 498.177 50.9028 498.06 51.2132 497.931L51.759 497.717L52.23 498.862Z" fill="#D9D9D9" fill-opacity="0.1"/>
<path d="M53.741 502.587L54.2227 503.807L53.8373 503.978C53.0239 504.321 52.9918 504.3 52.478 503.037C52.2212 502.394 52.0499 501.859 52.0927 501.838C52.1355 501.806 52.4138 501.688 52.7135 501.57L53.2487 501.356L53.741 502.587Z" fill="#D9D9D9" fill-opacity="0.1"/>
<path d="M55.2059 506.258C55.4627 506.911 55.6447 507.468 55.6233 507.489C55.6019 507.511 55.3236 507.639 55.0132 507.757L54.4459 507.981L54.3603 507.735C54.3068 507.607 54.0927 507.072 53.8787 506.547C53.6646 506.012 53.4934 505.573 53.4934 505.552C53.4934 505.509 54.2319 505.209 54.5102 505.134C54.7135 505.081 54.7884 505.199 55.2059 506.258Z" fill="#D9D9D9" fill-opacity="0.1"/>
<path d="M56.2133 508.816C56.3203 508.988 57.1445 511.117 57.1124 511.139C57.0481 511.203 55.9243 511.631 55.9029 511.599C55.8066 511.46 54.9717 509.244 55.0038 509.212C55.0574 509.169 56.0635 508.731 56.117 508.731C56.1384 508.731 56.1812 508.763 56.2133 508.816Z" fill="#D9D9D9" fill-opacity="0.1"/>
<path d="M58.1287 513.568L58.6211 514.778L58.118 515.013C57.8398 515.142 57.5615 515.249 57.4973 515.249C57.3795 515.26 56.4912 513.215 56.4912 512.948C56.4912 512.841 56.6731 512.744 57.5187 512.402C57.5936 512.38 57.8398 512.862 58.1287 513.568Z" fill="#D9D9D9" fill-opacity="0.1"/>
<path d="M59.5846 517.208C59.8308 517.818 60.0234 518.353 60.0234 518.417C60.0234 518.471 59.7666 518.62 59.4455 518.749L58.8675 518.974L58.3858 517.753L57.8935 516.533L58.3858 516.319C58.6427 516.212 58.9317 516.116 59.0066 516.116C59.0816 516.116 59.3384 516.608 59.5846 517.208Z" fill="#D9D9D9" fill-opacity="0.1"/>
<path d="M61.082 520.932C61.3388 521.585 61.5315 522.131 61.5101 522.152C61.4887 522.163 61.2104 522.281 60.9 522.409L60.3327 522.634L60.2471 522.399C60.1936 522.27 59.9795 521.735 59.7655 521.211C59.5514 520.675 59.3802 520.237 59.3802 520.215C59.3802 520.172 60.1294 519.862 60.3863 519.798C60.5896 519.755 60.6645 519.894 61.082 520.932Z" fill="#D9D9D9" fill-opacity="0.1"/>
<path d="M62.1554 523.63C62.2089 523.769 62.423 524.304 62.6371 524.828C62.8511 525.353 63.0117 525.802 62.9903 525.813C62.9368 525.867 61.8129 526.295 61.7915 526.263C61.738 526.177 60.8817 523.972 60.8817 523.908C60.8817 523.833 61.3527 523.608 61.8236 523.458C62.0056 523.394 62.0805 523.437 62.1554 523.63Z" fill="#D9D9D9" fill-opacity="0.1"/>
<path d="M64.0027 528.253L64.4844 529.473L63.8957 529.698C63.5746 529.827 63.2963 529.912 63.2749 529.891C63.2214 529.837 62.2688 527.525 62.3009 527.515C62.3116 527.504 62.5364 527.408 62.804 527.311C63.0716 527.204 63.3391 527.097 63.4034 527.076C63.4569 527.044 63.7352 527.579 64.0027 528.253Z" fill="#D9D9D9" fill-opacity="0.1"/>
<path d="M64.9897 530.758C65.0646 530.876 65.9102 533.027 65.9102 533.091C65.9102 533.188 64.9148 533.573 64.7863 533.53C64.69 533.487 63.9515 531.743 63.8551 531.336C63.823 531.175 64.9041 530.629 64.9897 530.758Z" fill="#D9D9D9" fill-opacity="0.1"/>
<path d="M66.4907 534.504C66.587 534.664 67.4218 536.805 67.3897 536.816C67.1864 536.955 66.2231 537.276 66.191 537.223C66.1267 537.116 65.2705 534.964 65.2705 534.9C65.2705 534.846 66.2231 534.418 66.3515 534.418C66.3943 534.418 66.4585 534.45 66.4907 534.504Z" fill="#D9D9D9" fill-opacity="0.1"/>
<path d="M68.2095 538.775C68.3701 539.181 68.5841 539.727 68.6912 539.995L68.8945 540.498L68.2844 540.712C67.9526 540.84 67.6744 540.926 67.6637 540.915C67.653 540.905 67.4282 540.359 67.1606 539.695L66.679 538.507L67.2676 538.282C67.5887 538.154 67.867 538.057 67.8884 538.057C67.9098 538.057 68.049 538.379 68.2095 538.775Z" fill="#D9D9D9" fill-opacity="0.1"/>
<path d="M69.8578 542.885C70.1146 543.537 70.2859 544.105 70.2324 544.148C70.0397 544.319 69.1942 544.597 69.1192 544.511C69.0336 544.404 68.1453 542.2 68.1881 542.178C68.2095 542.167 68.5092 542.039 69.2798 541.739C69.3333 541.718 69.6009 542.232 69.8578 542.885Z" fill="#D9D9D9" fill-opacity="0.1"/>
<path d="M132.291 543.805C132.312 544.148 132.323 544.437 132.312 544.458C132.291 544.501 129.776 544.704 129.754 544.672C129.743 544.651 129.701 544.362 129.669 544.03L129.615 543.42L129.947 543.366C130.139 543.334 130.728 543.281 131.274 543.248L132.248 543.184L132.291 543.805Z" fill="#D9D9D9" fill-opacity="0.1"/>
<path d="M128.352 544.115C128.395 544.447 128.405 544.736 128.395 544.747C128.33 544.8 125.837 544.961 125.783 544.918C125.762 544.897 125.74 544.597 125.74 544.265V543.655L126.618 543.591C127.11 543.548 127.677 543.516 127.892 543.516H128.277L128.352 544.115Z" fill="#D9D9D9" fill-opacity="0.1"/>
<path d="M124.403 544.319C124.446 544.651 124.446 544.961 124.392 545.015C124.338 545.057 123.728 545.132 123.033 545.175L121.78 545.25V544.608V543.966L122.605 543.901C123.065 543.859 123.643 543.805 123.889 543.773L124.328 543.719L124.403 544.319Z" fill="#D9D9D9" fill-opacity="0.1"/>
<path d="M120.432 544.212C120.464 544.308 120.496 544.597 120.496 544.854V545.325L119.929 545.378C119.629 545.411 119.051 545.464 118.666 545.496C117.852 545.56 117.82 545.528 117.82 544.736C117.82 544.19 117.788 544.201 119.329 544.105C120.229 544.051 120.368 544.062 120.432 544.212Z" fill="#D9D9D9" fill-opacity="0.1"/>
<path d="M116.535 545.004V545.657L116.128 545.667C115.914 545.667 115.336 545.71 114.855 545.742L113.977 545.817L113.913 545.196C113.87 544.854 113.859 544.554 113.881 544.533C113.902 544.511 114.502 544.458 115.229 544.415L116.535 544.34V545.004Z" fill="#D9D9D9" fill-opacity="0.1"/>
<path d="M112.574 545.164C112.574 545.496 112.574 545.796 112.574 545.839C112.574 545.924 110.123 546.138 110.059 546.063C110.048 546.042 109.995 545.764 109.963 545.421L109.888 544.822L110.723 544.747C111.183 544.715 111.782 544.661 112.06 544.629L112.574 544.565V545.164Z" fill="#D9D9D9" fill-opacity="0.1"/>
<path d="M108.615 545.207C108.615 545.378 108.647 545.667 108.679 545.849C108.743 546.17 108.743 546.17 108.176 546.235C107.855 546.267 107.255 546.32 106.827 546.352L106.067 546.406L106.024 545.753C106.003 545.368 106.035 545.079 106.099 545.068C106.153 545.047 106.752 545.004 107.405 544.961L108.615 544.897V545.207Z" fill="#D9D9D9" fill-opacity="0.1"/>
<path d="M104.7 545.625C104.839 546.524 104.914 546.47 103.469 546.577C102.762 546.631 102.152 546.652 102.131 546.631C102.109 546.609 102.088 546.31 102.088 545.978V545.368L102.912 545.293C103.362 545.261 103.929 545.229 104.175 545.229C104.614 545.229 104.635 545.239 104.7 545.625Z" fill="#D9D9D9" fill-opacity="0.1"/>
<path d="M70.9719 545.689C71.0576 545.881 71.2502 546.374 71.4215 546.802L71.7212 547.573L72.449 547.508L73.1875 547.444V548.086V548.729L72.2135 548.857C71.5606 548.943 70.897 549.125 70.1692 549.414C69.5805 549.649 69.0882 549.831 69.0668 549.81C69.0561 549.788 68.9597 549.563 68.8634 549.296C68.7564 549.028 68.6493 548.761 68.6172 548.696C68.5958 548.632 68.9811 548.429 69.4949 548.225C69.9979 548.033 70.4047 547.862 70.4047 547.84C70.4047 547.819 70.2334 547.359 70.0193 546.834C69.8053 546.299 69.6447 545.849 69.6661 545.839C69.6875 545.817 69.9658 545.71 70.2762 545.582L70.8328 545.357L70.9719 545.689Z" fill="#D9D9D9" fill-opacity="0.1"/>
<path d="M100.749 545.903C100.878 546.781 100.888 546.77 99.5825 546.866C98.951 546.92 98.3623 546.93 98.2767 546.898C98.1696 546.856 98.1268 546.652 98.1268 546.256V545.678L98.8439 545.603C99.2507 545.571 99.8179 545.518 100.128 545.485L100.685 545.432L100.749 545.903Z" fill="#D9D9D9" fill-opacity="0.1"/>
<path d="M96.8398 546.385V547.037L96.2726 547.091C95.9729 547.123 95.3949 547.177 95.0096 547.209L94.3032 547.262L94.2283 546.866C94.1962 546.641 94.164 546.331 94.164 546.16C94.164 545.881 94.1854 545.871 94.6778 545.871C94.9668 545.871 95.5662 545.839 96.0157 545.807L96.8398 545.732V546.385Z" fill="#D9D9D9" fill-opacity="0.1"/>
<path d="M92.8904 546.674C92.9118 547.027 92.8904 547.305 92.8262 547.326C92.762 547.348 92.184 547.401 91.5311 547.444L90.3323 547.53L90.2574 546.909C90.2253 546.556 90.2039 546.256 90.2253 546.235C90.2467 546.213 90.8461 546.17 91.5632 546.128L92.8583 546.053L92.8904 546.674Z" fill="#D9D9D9" fill-opacity="0.1"/>
<path d="M88.9421 546.909C88.9635 547.251 88.9635 547.562 88.9314 547.594C88.8993 547.637 88.2999 547.701 87.6042 547.744L86.3519 547.808V547.401C86.3519 547.176 86.3198 546.888 86.2877 546.759C86.2342 546.545 86.277 546.524 86.962 546.47C87.358 546.427 87.9574 546.374 88.2999 546.342L88.8993 546.288L88.9421 546.909Z" fill="#D9D9D9" fill-opacity="0.1"/>
<path d="M85.0174 547.209C85.0495 547.54 85.0709 547.84 85.0388 547.862C84.996 547.904 82.47 548.118 82.4272 548.086C82.3844 548.044 82.363 546.834 82.4058 546.791C82.4272 546.77 83.0052 546.716 83.6902 546.684L84.9425 546.609L85.0174 547.209Z" fill="#D9D9D9" fill-opacity="0.1"/>
<path d="M81.0428 547.262C81.1926 548.193 81.2033 548.183 80.2186 548.258C79.737 548.3 79.1376 548.333 78.8807 548.333H78.4312V547.69V547.048L78.7737 547.037C78.9664 547.037 79.5443 546.995 80.0581 546.963L80.9786 546.888L81.0428 547.262Z" fill="#D9D9D9" fill-opacity="0.1"/>
<path d="M77.0733 547.23C77.1161 547.262 77.1482 547.551 77.1482 547.862C77.1482 548.525 77.2017 548.504 75.6926 548.6C74.4724 548.675 74.4724 548.675 74.4724 547.776V547.38L75.029 547.326C76.4097 547.187 77.0091 547.155 77.0733 547.23Z" fill="#D9D9D9" fill-opacity="0.1"/>
<path d="M67.6121 549.681C67.7406 550.013 67.8262 550.302 67.8155 550.323C67.6764 550.462 65.4394 551.222 65.3752 551.158C65.2681 551.03 64.9042 550.045 64.9577 550.013C64.9792 549.991 65.4608 549.799 66.0174 549.595C66.5739 549.381 67.1091 549.178 67.2161 549.135C67.3553 549.082 67.4409 549.199 67.6121 549.681Z" fill="#D9D9D9" fill-opacity="0.1"/>
<path d="M72.269 550.281C72.3974 550.666 72.6436 552.667 72.5793 552.732C72.4509 552.849 71.3699 552.967 71.3699 552.86C71.3699 552.753 71.0702 550.944 70.9953 550.612C70.9525 550.43 71.006 550.377 71.2629 550.323C71.4448 550.291 71.7338 550.227 71.905 550.195C72.1191 550.152 72.2368 550.184 72.269 550.281Z" fill="#D9D9D9" fill-opacity="0.1"/>
<path d="M63.9075 551.03C64.0039 551.287 64.0895 551.554 64.1109 551.629C64.143 551.768 63.8647 551.907 62.3984 552.464L61.7241 552.71L61.5207 552.228C61.403 551.961 61.3067 551.672 61.3067 551.597C61.3067 551.469 63.3403 550.58 63.6186 550.58C63.6828 550.58 63.8112 550.784 63.9075 551.03Z" fill="#D9D9D9" fill-opacity="0.1"/>
<path d="M60.2352 552.453C60.3529 552.732 60.4492 553.01 60.4492 553.085C60.4492 553.213 58.1373 554.198 58.0517 554.102C57.9233 553.984 57.5808 552.935 57.645 552.892C57.6878 552.871 58.1801 552.667 58.7367 552.453C59.2933 552.239 59.8177 552.036 59.8819 552.004C59.9676 551.972 60.1067 552.143 60.2352 552.453Z" fill="#D9D9D9" fill-opacity="0.1"/>
<path d="M72.9085 554.23C72.9834 554.465 73.3045 556.606 73.2617 556.638C73.2403 556.67 72.0094 556.874 72.0094 556.852C71.9024 556.306 71.592 554.273 71.6134 554.262C71.6241 554.251 71.9131 554.209 72.2449 554.166C72.7266 554.102 72.8764 554.123 72.9085 554.23Z" fill="#D9D9D9" fill-opacity="0.1"/>
<path d="M73.507 557.976C73.507 557.997 73.6033 558.575 73.7211 559.25C73.8709 560.117 73.8923 560.491 73.8174 560.545C73.6568 560.641 72.7364 560.759 72.6722 560.695C72.64 560.673 72.5223 560.106 72.4153 559.453C72.1905 558.147 72.2119 558.083 72.7578 558.072C72.9076 558.072 73.1324 558.04 73.2608 558.008C73.4 557.965 73.507 557.955 73.507 557.976Z" fill="#D9D9D9" fill-opacity="0.1"/>
<path d="M74.1528 561.893C74.1528 561.979 74.4846 564.034 74.5274 564.237C74.5702 564.452 74.5167 564.473 73.9923 564.548C73.6712 564.58 73.3715 564.612 73.3287 564.612C73.2537 564.612 72.9005 562.718 72.8791 562.236C72.8684 562.108 73.029 562.033 73.5106 561.958C73.8638 561.904 74.1528 561.872 74.1528 561.893Z" fill="#D9D9D9" fill-opacity="0.1"/>
<path d="M74.9724 567.052L75.1758 568.337L74.9082 568.39C74.7584 568.422 74.4587 568.476 74.2446 568.508L73.87 568.572L73.6773 567.331C73.5596 566.614 73.5168 566.046 73.5703 565.993C73.6238 565.95 73.9128 565.875 74.2125 565.832L74.7584 565.768L74.9724 567.052Z" fill="#D9D9D9" fill-opacity="0.1"/>
<path d="M52.9275 555.472C53.0666 555.803 53.163 556.082 53.1416 556.092C53.0238 556.167 50.8511 557.002 50.7654 557.002C50.7012 557.002 50.5514 556.734 50.4229 556.403L50.1875 555.814L50.4229 555.718C51.0009 555.493 52.6599 554.861 52.6706 554.861C52.6813 554.861 52.7991 555.14 52.9275 555.472Z" fill="#D9D9D9" fill-opacity="0.1"/>
<path d="M49.264 556.949C49.3711 557.27 49.4353 557.548 49.4139 557.569C49.3389 557.634 47.0271 558.5 47.0163 558.468C46.9307 558.329 46.5347 557.28 46.5561 557.259C46.6203 557.195 48.8466 556.36 48.9429 556.36C49.0071 556.36 49.1463 556.627 49.264 556.949Z" fill="#D9D9D9" fill-opacity="0.1"/>
<path d="M45.5614 558.351C45.6898 558.693 45.7754 558.971 45.7647 558.993C45.6363 559.111 43.4849 559.892 43.3779 559.849C43.2067 559.785 42.8535 558.822 42.9605 558.715C43.0461 558.64 45.1868 557.751 45.2938 557.751C45.3152 557.751 45.4329 558.019 45.5614 558.351Z" fill="#D9D9D9" fill-opacity="0.1"/>
<path d="M41.8588 559.699C41.9551 559.956 42.0408 560.224 42.0622 560.299C42.0943 560.459 39.7931 561.423 39.6646 561.294C39.6218 561.262 39.5041 560.984 39.3864 560.695L39.1723 560.149L40.339 559.699C40.9704 559.453 41.5377 559.25 41.5912 559.25C41.6447 559.25 41.7625 559.453 41.8588 559.699Z" fill="#D9D9D9" fill-opacity="0.1"/>
<path d="M38.1332 561.037C38.4971 561.915 38.5399 561.861 37.2769 562.343C36.6562 562.589 36.0996 562.782 36.0461 562.782C35.9712 562.782 35.6715 562.097 35.5965 561.733C35.5751 561.647 36.0033 561.412 36.7418 561.112C37.384 560.855 37.9191 560.641 37.9405 560.641C37.9512 560.641 38.0476 560.823 38.1332 561.037Z" fill="#D9D9D9" fill-opacity="0.1"/>
<path d="M34.5401 562.696C34.6685 562.996 34.7327 563.285 34.6899 563.317C34.6364 563.36 34.1441 563.574 33.5875 563.799C33.0309 564.013 32.5172 564.216 32.4422 564.248C32.3673 564.28 32.2389 564.12 32.1426 563.895C31.7786 563.017 31.7358 563.071 32.9988 562.579C33.6303 562.343 34.1762 562.14 34.2297 562.14C34.2725 562.14 34.4116 562.386 34.5401 562.696Z" fill="#D9D9D9" fill-opacity="0.1"/>
<path d="M30.8767 564.141C31.0158 564.473 31.1122 564.762 31.0908 564.773C31.0266 564.826 28.7896 565.672 28.704 565.672C28.6076 565.672 28.2437 564.805 28.2223 564.559C28.2223 564.494 30.47 563.531 30.6198 563.531C30.6305 563.531 30.7483 563.809 30.8767 564.141Z" fill="#D9D9D9" fill-opacity="0.1"/>
<path d="M27.1138 565.425C27.4349 566.185 27.4242 566.196 26.3324 566.646C24.8447 567.256 24.9838 567.256 24.7163 566.571C24.5878 566.239 24.5022 565.95 24.5236 565.929C24.5771 565.875 26.782 565.029 26.8676 565.029C26.9104 565.029 27.0281 565.211 27.1138 565.425Z" fill="#D9D9D9" fill-opacity="0.1"/>
<path d="M23.515 567.02C23.6434 567.352 23.7291 567.641 23.7077 567.662C23.6541 567.716 21.4493 568.562 21.3637 568.562C21.2352 568.562 20.8285 567.588 20.8927 567.438C20.9141 567.373 21.3851 567.138 21.9416 566.935C22.4875 566.721 23.012 566.517 23.1083 566.485C23.2367 566.432 23.333 566.549 23.515 567.02Z" fill="#D9D9D9" fill-opacity="0.1"/>
<path d="M19.8544 568.519L20.0898 569.107L19.8544 569.204C18.3666 569.782 17.6174 570.071 17.596 570.039C17.5104 569.889 17.1144 568.84 17.1358 568.829C17.2428 568.754 19.4262 567.919 19.5119 567.919C19.5654 567.919 19.7259 568.187 19.8544 568.519Z" fill="#D9D9D9" fill-opacity="0.1"/>
<path d="M16.1365 569.91C16.2757 570.231 16.3613 570.52 16.3292 570.542C16.3078 570.574 15.7512 570.799 15.0983 571.066L13.9103 571.526L13.6855 570.938C13.5571 570.617 13.4928 570.317 13.5357 570.274C13.6213 570.199 14.0066 570.039 15.2482 569.568L15.9011 569.322L16.1365 569.91Z" fill="#D9D9D9" fill-opacity="0.1"/>
<path d="M12.4893 571.366C12.6177 571.666 12.6819 571.955 12.6391 571.997C12.4679 572.158 10.3058 572.939 10.2416 572.864C10.1346 572.747 9.79208 571.773 9.83489 571.73C9.89911 571.666 12.0612 570.809 12.1682 570.809C12.2217 570.809 12.3609 571.055 12.4893 571.366Z" fill="#D9D9D9" fill-opacity="0.1"/>
<path d="M8.74347 572.661C8.85051 572.907 8.95754 573.185 8.98965 573.271C9.02176 573.389 8.75418 573.549 7.90862 573.881C7.28784 574.138 6.73127 574.341 6.65635 574.341C6.54932 574.341 6.26033 573.721 6.164 573.282C6.14259 573.196 6.36736 573.046 6.77408 572.896C7.12729 572.757 7.67315 572.543 7.98355 572.425L8.55082 572.201L8.74347 572.661Z" fill="#D9D9D9" fill-opacity="0.1"/>
<path d="M76.2273 574.823C76.3343 575.508 76.3878 576.097 76.3664 576.118C76.3236 576.172 75.1891 576.364 75.1463 576.332C75.0821 576.279 74.7289 573.785 74.7824 573.763C74.8145 573.742 75.1142 573.688 75.446 573.646L76.0346 573.571L76.2273 574.823Z" fill="#D9D9D9" fill-opacity="0.1"/>
<path d="M76.6514 577.574C76.7905 578.023 77.026 579.961 76.9618 580.025C76.919 580.068 76.63 580.132 76.3196 580.175C75.6988 580.26 75.763 580.367 75.5383 578.89C75.474 578.473 75.3991 578.034 75.367 577.906C75.3349 577.702 75.3777 577.659 75.7202 577.606C75.945 577.574 76.234 577.52 76.3731 577.488C76.5123 577.456 76.63 577.499 76.6514 577.574Z" fill="#D9D9D9" fill-opacity="0.1"/>
<path d="M77.3074 581.63C77.393 582.026 77.682 583.899 77.6499 583.931C77.6392 583.942 77.3502 583.996 77.0077 584.049C76.3013 584.178 76.3976 584.338 76.13 582.647C76.0337 582.069 75.9695 581.577 75.9909 581.566C76.0123 581.545 76.3013 581.502 76.6331 581.459C77.211 581.384 77.2431 581.395 77.3074 581.63Z" fill="#D9D9D9" fill-opacity="0.1"/>
<path d="M77.9392 585.601C78.271 587.549 78.2924 587.774 78.1961 587.838C78.0141 587.956 77.1151 588.052 77.0401 587.967C76.9973 587.913 76.9117 587.474 76.8368 586.971C76.7619 586.468 76.6762 585.933 76.6441 585.783C76.5799 585.462 76.6334 585.441 77.4362 585.312C77.875 585.248 77.8857 585.248 77.9392 585.601Z" fill="#D9D9D9" fill-opacity="0.1"/>
<path d="M78.7226 590.418C78.8403 591.113 78.9045 591.713 78.8617 591.734C78.8189 591.766 78.5192 591.809 78.1981 591.852L77.6201 591.916L77.4275 590.664C77.3204 589.979 77.2562 589.401 77.2776 589.379C77.299 589.358 77.588 589.294 77.9198 589.24L78.5192 589.144L78.7226 590.418Z" fill="#D9D9D9" fill-opacity="0.1"/>
<path d="M79.3184 594.132C79.5967 595.758 79.6502 595.63 78.6334 595.801L78.2481 595.855L78.0554 594.57C77.9484 593.864 77.8735 593.265 77.9056 593.243C77.927 593.222 78.216 593.168 78.5478 593.136L79.1472 593.061L79.3184 594.132Z" fill="#D9D9D9" fill-opacity="0.1"/>
<path d="M79.7738 597.054C79.8273 597.225 80.1484 599.216 80.1484 599.43C80.1484 599.526 79.9558 599.601 79.5491 599.654C79.2173 599.697 78.939 599.708 78.9069 599.687C78.8855 599.665 78.7784 599.087 78.6714 598.402L78.4787 597.15L78.9069 597.086C79.153 597.043 79.4313 596.989 79.5384 596.968C79.6347 596.936 79.7417 596.979 79.7738 597.054Z" fill="#D9D9D9" fill-opacity="0.1"/>
<path d="M80.4037 601.014C80.4573 601.174 80.7891 603.165 80.7891 603.326C80.7891 603.411 79.6117 603.7 79.5368 603.625C79.4619 603.561 79.1087 601.142 79.1622 601.089C79.205 601.046 79.494 600.982 79.7937 600.939C80.2218 600.885 80.3716 600.896 80.4037 601.014Z" fill="#D9D9D9" fill-opacity="0.1"/>
<path d="M81.0538 604.974C81.2144 605.702 81.407 607.264 81.3428 607.318C81.3 607.361 81.0217 607.414 80.7113 607.457C80.0691 607.543 80.1119 607.596 79.93 606.29C79.8658 605.819 79.7801 605.327 79.748 605.199C79.7052 605.017 79.7587 604.963 80.0263 604.91C80.2083 604.878 80.4972 604.813 80.6792 604.781C80.9468 604.728 81.0003 604.76 81.0538 604.974Z" fill="#D9D9D9" fill-opacity="0.1"/>
<path d="M81.6437 608.709C81.6437 608.731 81.74 609.298 81.8577 609.972C81.9755 610.647 82.0611 611.214 82.0397 611.225C82.029 611.235 81.74 611.289 81.4082 611.342C80.873 611.439 80.7874 611.428 80.7446 611.278C80.6376 610.914 80.3379 608.891 80.3807 608.859C80.4342 608.795 81.6437 608.656 81.6437 608.709Z" fill="#D9D9D9" fill-opacity="0.1"/>
<path d="M82.2857 612.616C82.2857 612.67 82.382 613.237 82.489 613.89C82.596 614.532 82.6817 615.078 82.671 615.088C82.5853 615.174 81.4829 615.324 81.4294 615.26C81.3866 615.206 81.2688 614.65 81.1618 614.007C80.9692 612.787 80.9906 612.67 81.4401 612.659C81.5364 612.659 81.7719 612.627 81.9539 612.595C82.1358 612.552 82.2857 612.562 82.2857 612.616Z" fill="#D9D9D9" fill-opacity="0.1"/>
<path d="M83.0765 617.518C83.3119 619.07 83.3226 619.038 82.841 619.124C81.9633 619.263 82.0168 619.305 81.8135 618.032C81.7171 617.4 81.6422 616.833 81.6422 616.758C81.6422 616.694 81.8456 616.608 82.0918 616.565C82.3486 616.533 82.6269 616.469 82.7232 616.448C82.8731 616.405 82.9266 616.587 83.0765 617.518Z" fill="#D9D9D9" fill-opacity="0.1"/>
</g>
</svg>
