<svg width="658" height="667" viewBox="0 0 658 667" fill="none" xmlns="http://www.w3.org/2000/svg">
<g opacity="0.6">
<circle cx="181.998" cy="182" r="138" transform="rotate(-21.5938 181.998 182)" stroke="#D9D9D9" stroke-opacity="0.1" stroke-width="4"/>
<path d="M129.916 53.1235C112.97 59.8309 122.135 123.133 150.388 194.513C178.64 265.892 215.281 318.32 232.227 311.612" stroke="#D9D9D9" stroke-opacity="0.1" stroke-dasharray="4 4"/>
<path d="M132.144 53.3173C149.09 46.6099 185.566 98.6209 213.615 169.487C241.664 240.353 250.665 303.239 233.719 309.947" stroke="#D9D9D9" stroke-opacity="0.1" stroke-width="4"/>
<path d="M311.244 130.845C304.333 113.385 240.866 122.134 169.487 150.386C98.1069 178.639 45.8444 215.696 52.755 233.155" stroke="#D9D9D9" stroke-opacity="0.1" stroke-dasharray="4 4"/>
<path d="M310.68 132.142C317.591 149.602 265.744 186.494 194.878 214.544C124.012 242.593 60.9614 251.177 54.0508 233.717" stroke="#D9D9D9" stroke-opacity="0.1" stroke-width="4"/>
</g>
<g opacity="0.6">
<path d="M518.641 624.662C539.953 636.737 566.04 636.737 587.352 624.662C608.465 612.242 621.509 589.65 621.708 565.156C621.509 540.662 608.465 518.07 587.352 505.65C566.04 493.576 539.953 493.575 518.641 505.65C497.528 518.069 484.484 540.662 484.285 565.156C484.484 589.651 497.528 612.242 518.641 624.662Z" stroke="#D9D9D9" stroke-opacity="0.1" stroke-width="3"/>
</g>
</svg>
