<svg width="616" height="674" viewBox="0 0 616 674" fill="none" xmlns="http://www.w3.org/2000/svg">
<g opacity="0.6">
<path d="M535.89 151.329C511.736 105.632 465.026 75.7559 413.413 72.9926C361.761 71.0613 312.533 96.5757 284.333 139.893C256.835 183.658 254.317 239.048 277.73 285.129C301.884 330.826 348.594 360.701 400.207 363.465C451.858 365.396 501.087 339.882 529.287 296.565C556.785 252.799 559.303 197.409 535.89 151.329Z" stroke="#D9D9D9" stroke-opacity="0.1" stroke-width="4"/>
<line x1="388.642" y1="224.685" x2="422.189" y2="207.298" stroke="#212121" stroke-width="2.09918"/>
<line x1="414.385" y1="234.411" x2="396.997" y2="200.864" stroke="#212121" stroke-width="2.09918"/>
</g>
<rect opacity="0.6" x="152.97" y="156.47" width="63" height="63" transform="rotate(30 152.97 156.47)" stroke="#212121" stroke-width="4"/>
<g opacity="0.6">
<path d="M1.5 615C1.5 646.48 30.8776 672 66.5 672C102.122 672 130.5 646.48 130.5 615" stroke="#D9D9D9" stroke-opacity="0.1" stroke-width="3"/>
<path d="M2.5 615C2.5 615.237 2.62451 615.672 3.32536 616.305C4.02178 616.933 5.13479 617.609 6.70808 618.296C9.84367 619.665 14.4739 620.933 20.3104 622.01C31.9588 624.161 48.1133 625.5 66 625.5C83.8867 625.5 100.041 624.161 111.69 622.01C117.526 620.933 122.156 619.665 125.292 618.296C126.865 617.609 127.978 616.933 128.675 616.305C129.375 615.672 129.5 615.237 129.5 615C129.5 614.763 129.375 614.328 128.675 613.695C127.978 613.067 126.865 612.391 125.292 611.704C122.156 610.335 117.526 609.067 111.69 607.99C100.041 605.839 83.8867 604.5 66 604.5C48.1133 604.5 31.9588 605.839 20.3104 607.99C14.4739 609.067 9.84367 610.335 6.70808 611.704C5.13479 612.391 4.02178 613.067 3.32536 613.695C2.62451 614.328 2.5 614.763 2.5 615Z" stroke="#D9D9D9" stroke-opacity="0.1" stroke-width="3"/>
</g>
</svg>
